<?xml version="1.0" encoding="UTF-8" standalone="no"?>
<svg
   xmlns:dc="http://purl.org/dc/elements/1.1/"
   xmlns:cc="http://creativecommons.org/ns#"
   xmlns:rdf="http://www.w3.org/1999/02/22-rdf-syntax-ns#"
   xmlns:svg="http://www.w3.org/2000/svg"
   xmlns="http://www.w3.org/2000/svg"
   viewBox="0 0 1096.0627 219.21201"
   height="40.21201"
   width="200.0627"
   xml:space="preserve"
   id="svg2"
   version="1.1"><metadata
     id="metadata8"><rdf:RDF><cc:Work
         rdf:about=""><dc:format>image/svg+xml</dc:format><dc:type
           rdf:resource="http://purl.org/dc/dcmitype/StillImage" /><dc:title></dc:title></cc:Work></rdf:RDF></metadata><defs
     id="defs6"><clipPath
       id="clipPath18"
       clipPathUnits="userSpaceOnUse"><path
         id="path16"
         d="M 0,164.409 H 822.047 V 0 H 0 Z" /></clipPath><clipPath
       id="clipPath96"
       clipPathUnits="userSpaceOnUse"><path
         id="path94"
         d="M 65.9149,133.785 H 83.8443 V 97.9354 H 65.9149 Z" /></clipPath><clipPath
       id="clipPath100"
       clipPathUnits="userSpaceOnUse"><path
         id="path98"
         d="M 83.844,133.785 H 72.166 l -6.251,-18.534 5.839,-17.316 z" /></clipPath><linearGradient
       id="linearGradient106"
       spreadMethod="pad"
       gradientTransform="matrix(9.3822241,3.7035096,3.7035096,-9.3822241,66.171448,113.57543)"
       gradientUnits="userSpaceOnUse"
       y2="0"
       x2="1"
       y1="0"
       x1="0"><stop
         id="stop102"
         offset="0"
         style="stop-opacity:1;stop-color:#626264" /><stop
         id="stop104"
         offset="1"
         style="stop-opacity:1;stop-color:#eb6747" /></linearGradient><clipPath
       id="clipPath128"
       clipPathUnits="userSpaceOnUse"><path
         id="path126"
         d="M 49.0088,97.9354 H 65.9149 V 47.8045 H 49.0088 Z" /></clipPath><clipPath
       id="clipPath132"
       clipPathUnits="userSpaceOnUse"><path
         id="path130"
         d="M 49.009,65.12 54.848,47.804 65.915,80.62 60.076,97.935 Z" /></clipPath><linearGradient
       id="linearGradient138"
       spreadMethod="pad"
       gradientTransform="matrix(-10.599756,-3.5743365,-3.5743365,10.599756,67.262749,76.174911)"
       gradientUnits="userSpaceOnUse"
       y2="0"
       x2="1"
       y1="0"
       x1="0"><stop
         id="stop134"
         offset="0"
         style="stop-opacity:1;stop-color:#626264" /><stop
         id="stop136"
         offset="1"
         style="stop-opacity:1;stop-color:#eb6747" /></linearGradient></defs><g
     transform="matrix(1.3333333,0,0,-1.3333333,0,219.212)"
     id="g10"><g
       id="g12"><g
         clip-path="url(#clipPath18)"
         id="g14"><g
           transform="translate(124.542,87.074)"
           id="g20"><path
             id="path22"
             style="fill:#ff6743;fill-opacity:1;fill-rule:nonzero;stroke:none"
             d="M 0,0 C 2.479,11.81 12.019,19.964 23.538,19.964 34.404,19.964 43.362,12.168 46.621,0 Z m 44.748,-16.01 c -3.231,-8.246 -12.35,-14.465 -21.21,-14.465 -12.275,0 -22.8,9.451 -23.916,21.259 h 57.751 l -0.027,0.939 C 57.086,0.729 56.011,5.755 53.239,10.93 47.241,22.187 35.761,29.18 23.28,29.18 c -19.102,0 -34.065,-15.155 -34.065,-34.5 0,-19.273 15.077,-34.37 34.323,-34.37 13.836,0 27.219,9.694 31.823,23.05 l 0.416,1.21 H 44.975 Z" /></g><g
           transform="translate(193.7441,43.0266)"
           id="g24"><path
             id="path26"
             style="fill:#ff6743;fill-opacity:1;fill-rule:nonzero;stroke:none"
             d="M 0,0 H -11.678 L 17.437,86.334 H 29.116 Z" /></g><g
           transform="translate(219.6025,43.0266)"
           id="g28"><path
             id="path30"
             style="fill:#ff6743;fill-opacity:1;fill-rule:nonzero;stroke:none"
             d="m 0,0 h -11.678 l 29.114,86.334 h 11.68 z" /></g><g
           transform="translate(336.1396,60.9788)"
           id="g32"><path
             id="path34"
             style="fill:#5460a9;fill-opacity:1;fill-rule:nonzero;stroke:none"
             d="m 0,0 c -19.174,0 -28.025,14.361 -28.136,27.662 0,16.028 11.67,27.662 27.748,27.662 15.599,0 27.362,-11.892 27.362,-27.662 C 26.974,11.892 15.377,0 0,0 m 26.586,59.105 c -6.652,5.607 -16.007,9.623 -26.974,9.623 -26.884,0 -41.391,-21.158 -41.391,-41.066 0,-19.907 14.507,-41.065 41.391,-41.065 10.444,0 19.645,3.304 26.684,9.362 C 24.269,-18.892 11.947,-27.621 0,-27.621 c -5.916,0 -12.268,2.256 -16.991,6.034 l -0.079,0.062 c -3.795,2.912 -5.731,6.085 -7.285,8.634 l -1.869,3.036 h -14.585 l 3.059,-7.02 c 6.394,-14.669 21.413,-24.148 38.265,-24.148 6.275,0 15.961,2.291 24.325,8.722 6.977,5.364 15.31,15.483 15.389,33.25 V 67.042 H 26.586 Z" /></g><g
           transform="translate(421.0557,116.7703)"
           id="g36"><path
             id="path38"
             style="fill:#5460a9;fill-opacity:1;fill-rule:nonzero;stroke:none"
             d="m 0,0 v 12.79 l -4.858,-0.319 c -4.19,-0.276 -12.25,-0.804 -19.263,-6.131 v 4.454 h -12.732 v -77.847 h 12.732 v 41.777 c 0,9.338 1.196,15.53 7.467,21.34 5.118,3.574 8.736,3.687 12.237,3.797 z" /></g><g
           transform="translate(454.8047,60.0672)"
           id="g40"><path
             id="path42"
             style="fill:#5460a9;fill-opacity:1;fill-rule:nonzero;stroke:none"
             d="m 0,0 c -13.689,0 -28.497,8.952 -28.66,28.574 0,16.289 12.154,28.573 28.272,28.573 16.118,0 28.274,-12.284 28.274,-28.573 C 27.886,12.284 15.897,0 0,0 m 27.499,57.993 c -6.55,6.161 -16.293,10.735 -27.887,10.735 -22.856,0 -40.091,-17.263 -40.091,-40.154 0,-10.466 3.788,-20.326 10.667,-27.765 7.389,-7.989 17.838,-12.389 29.424,-12.389 11.074,0 20.756,3.821 27.887,10.77 V -9.894 H 39.317 V 67.042 H 27.499 Z" /></g><g
           transform="translate(543.1611,59.6111)"
           id="g44"><path
             id="path46"
             style="fill:#5460a9;fill-opacity:1;fill-rule:nonzero;stroke:none"
             d="m 0,0 c -16.377,0 -28.728,12.48 -28.728,29.03 0,16.55 12.185,29.03 28.342,29.03 13.907,0 28.951,-9.094 29.115,-29.03 C 28.729,12.48 16.378,0 0,0 m 0,68.728 c -11.354,0 -21.229,-4.062 -28.342,-11.422 v 9.736 H -39.249 V -36.603 h 10.907 V 0.682 C -21.88,-5.776 -11.935,-10.667 0,-10.667 c 22.597,0 39.636,17.065 39.636,39.697 0,10.35 -3.745,20.101 -10.547,27.455 C 21.787,64.38 11.457,68.728 0,68.728" /></g><g
           transform="translate(647.1113,120.2644)"
           id="g48"><path
             id="path50"
             style="fill:#5460a9;fill-opacity:1;fill-rule:nonzero;stroke:none"
             d="m 0,0 c -6.034,5.055 -13.925,7.617 -23.381,7.617 h -0.005 c -8.109,0.182 -17.932,-2.51 -24.617,-8.648 v 34.195 h -9.996 V -69.179 h 9.996 v 42.742 c 0,15.207 8.962,24.064 24.541,24.299 5.004,0 12.051,-0.981 17.206,-5.658 4.867,-4.404 7.334,-11.766 7.334,-21.883 v -39.5 h 9.997 v 39.5 C 11.075,-16.238 7.354,-6.257 0,0" /></g><path
           id="path52"
           style="fill:#5460a9;fill-opacity:1;fill-rule:nonzero;stroke:none"
           d="m 669.539,42.86 h 9.085 v 84.567 h -9.085 z" /><g
           transform="translate(702.9014,110.7537)"
           id="g54"><path
             id="path56"
             style="fill:#5460a9;fill-opacity:1;fill-rule:nonzero;stroke:none"
             d="m 0,0 c 6.979,6.252 12.914,8.621 21.895,8.741 0.117,0.002 0.232,0.002 0.349,0.002 10.545,0 23.149,-5.963 27.83,-19.396 l 0.427,-1.224 h 7.828 l -0.804,2.402 C 51.3,9.152 34.358,15.761 21.742,15.761 0.229,15.761 -16.005,-0.513 -16.07,-22.113 v -0.129 c 0.065,-21.527 16.299,-37.744 37.841,-37.744 16.899,0.27 30.548,9.688 35.623,24.577 l 0.822,2.412 h -7.87 l -0.411,-1.256 c -4.166,-12.73 -17.542,-18.624 -28.193,-18.714 -17.418,0 -30.553,13.265 -30.553,30.854 0,8.554 3.463,17.238 8.811,22.113" /></g><g
           transform="translate(808.752,73.2581)"
           id="g58"><path
             id="path60"
             style="fill:#5460a9;fill-opacity:1;fill-rule:nonzero;stroke:none"
             d="m 0,0 c -0.793,15.005 -11.048,17.795 -20.096,20.257 l -0.56,0.153 c -9.194,2.588 -13.929,5.356 -14.3,13.3 -0.168,3.546 1.009,6.831 3.315,9.249 2.577,2.702 6.39,4.189 10.753,4.19 3.999,0.057 7.449,-1.19 9.843,-3.542 2.44,-2.396 3.676,-5.784 3.676,-10.069 v -0.913 h 5.435 v 0.913 c 0,11.274 -7.441,18.656 -18.969,18.807 -11.657,0 -19.488,-7.506 -19.487,-18.708 0.401,-12.242 8.525,-15.554 19.16,-18.625 11.128,-2.472 15.557,-6.847 15.796,-15.605 0.125,-4.34 -1.379,-8.35 -4.237,-11.291 -2.859,-2.943 -6.744,-4.499 -11.232,-4.499 -10.026,0 -16.503,6.463 -16.503,16.464 v 0.912 h -5.382 l -0.053,-0.856 c -0.348,-5.675 1.452,-10.785 5.208,-14.778 4.146,-4.409 10.244,-6.938 16.73,-6.938 5.993,0 11.477,2.313 15.443,6.513 C -1.616,-10.997 0.322,-5.645 0,0" /></g><g
           transform="translate(83.8442,133.7854)"
           id="g62"><path
             id="path64"
             style="fill:#ff6743;fill-opacity:1;fill-rule:nonzero;stroke:none"
             d="m 0,0 h -11.679 l -6.25,-18.535 5.839,-17.315 z" /></g><g
           transform="translate(49.0088,65.1199)"
           id="g66"><path
             id="path68"
             style="fill:#ff6743;fill-opacity:1;fill-rule:nonzero;stroke:none"
             d="M 0,0 -23.157,68.666 H -34.835 L -5.72,-17.668 H 5.72 L 16.906,15.5 11.067,32.815 Z" /></g><g
           transform="translate(77.1006,47.4514)"
           id="g70"><path
             id="path72"
             style="fill:#ff6743;fill-opacity:1;fill-rule:nonzero;stroke:none"
             d="M 0,0 H 11.44 L 40.555,86.334 H 28.876 L 5.72,17.669 -17.437,86.334 h -11.678 z" /></g><g
           transform="translate(669.5488,28.3489)"
           id="g74"><path
             id="path76"
             style="fill:#5460a9;fill-opacity:1;fill-rule:nonzero;stroke:none"
             d="m 0,0 v -0.001 c 0,-2.518 2.03,-4.559 4.535,-4.559 2.504,0 4.534,2.041 4.534,4.559 V 0 c 0,2.518 -2.03,4.559 -4.534,4.559 C 2.03,4.559 0,2.518 0,0" /></g><g
           transform="translate(703.2305,40.7019)"
           id="g78"><path
             id="path80"
             style="fill:#5460a9;fill-opacity:1;fill-rule:nonzero;stroke:none"
             d="m 0,0 c 4.184,0.069 9.215,-2.282 11.074,-7.621 l 0.213,-0.612 H 14.8 l -0.402,1.201 c -2.072,6.199 -7.75,10.203 -14.462,10.203 -8.695,0 -15.256,-6.576 -15.283,-15.306 v -0.026 -0.027 c 0.027,-8.699 6.588,-15.253 15.297,-15.253 6.827,0.108 12.343,3.917 14.394,9.938 l 0.411,1.206 h -3.53 l -0.206,-0.629 c -1.147,-3.502 -5.107,-7.295 -11.083,-7.346 -6.851,0 -12.017,5.218 -12.017,12.137 0,3.367 1.359,6.781 3.457,8.693 C -5.873,-0.979 -3.535,-0.045 0,0" /></g><g
           transform="translate(741.2363,16.43)"
           id="g82"><path
             id="path84"
             style="fill:#5460a9;fill-opacity:1;fill-rule:nonzero;stroke:none"
             d="m 0,0 c -6.851,0 -12.017,5.218 -12.017,12.137 0,6.918 5.166,12.135 12.017,12.135 6.851,0 12.016,-5.217 12.016,-12.135 C 12.016,5.218 6.851,0 0,0 m 0,27.443 c -8.713,0 -15.283,-6.58 -15.283,-15.306 0,-8.726 6.57,-15.306 15.283,-15.306 8.712,0 15.282,6.58 15.282,15.306 0,8.726 -6.57,15.306 -15.282,15.306" /></g><g
           transform="translate(804.416,40.8601)"
           id="g86"><path
             id="path88"
             style="fill:#5460a9;fill-opacity:1;fill-rule:nonzero;stroke:none"
             d="m 0,0 c -1.96,1.971 -4.767,3.013 -8.114,3.013 -3.378,0 -6.517,-1.337 -8.608,-3.663 -0.481,-0.528 -0.898,-1.09 -1.248,-1.681 -0.339,0.61 -0.741,1.172 -1.186,1.649 -1.984,2.383 -5.086,3.695 -8.737,3.695 -1.334,0 -5.326,-0.301 -8.255,-3.621 v 2.949 h -3.267 v -29.268 h 3.267 v 16.548 c 0,3.343 0.729,5.736 2.335,7.578 1.25,1.641 3.67,2.729 5.891,2.643 2.909,-0.093 5.103,-1.071 6.51,-2.894 1.199,-1.609 1.875,-3.362 1.775,-7.585 v -16.29 h 3.267 v 16.29 c 0,4.211 0.359,5.646 1.924,7.679 1.573,2.064 4.302,2.8 6.332,2.8 2.494,0 4.421,-0.69 5.738,-2.062 1.693,-1.7 2.517,-4.453 2.517,-8.417 v -16.29 h 3.266 v 16.29 C 3.407,-5.8 2.259,-2.219 0,0" /></g><g
           id="g90"><g
             id="g92" /><g
             id="g120"><g
               id="g118"
               clip-path="url(#clipPath96)"><g
                 id="g116"><g
                   id="g114"
                   clip-path="url(#clipPath100)"><g
                     id="g112"><g
                       id="g110"><path
                         id="path108"
                         style="fill:url(#linearGradient106);stroke:none"
                         d="M 83.844,133.785 H 72.166 l -6.251,-18.534 5.839,-17.316 z" /></g></g></g></g></g></g></g><g
           id="g122"><g
             id="g124" /><g
             id="g152"><g
               id="g150"
               clip-path="url(#clipPath128)"><g
                 id="g148"><g
                   id="g146"
                   clip-path="url(#clipPath132)"><g
                     id="g144"><g
                       id="g142"><path
                         id="path140"
                         style="fill:url(#linearGradient138);stroke:none"
                         d="M 49.009,65.12 54.848,47.804 65.915,80.62 60.076,97.935 Z" /></g></g></g></g></g></g></g><g
           transform="translate(280.4009,86.9275)"
           id="g154"><path
             id="path156"
             style="fill:#ff6743;fill-opacity:1;fill-rule:nonzero;stroke:none"
             d="m 0,0 h -34.625 l -3.111,-8.982 H 1.033 C 0.449,-6.001 0.106,-2.995 0,0" /></g></g></g></g></svg>