<?xml version="1.0" encoding="utf-8"?>
<!-- Generator: Adobe Illustrator 21.0.0, SVG Export Plug-In . SVG Version: 6.00 Build 0)  -->
<svg version="1.1" id="Calque_1" xmlns="http://www.w3.org/2000/svg" xmlns:xlink="http://www.w3.org/1999/xlink" x="0px" y="0px"
	 viewBox="0 0 256 256" enable-background="new 0 0 256 256" xml:space="preserve">
<g>
	<path fill="#A5DBE8" d="M83,196.4c2-0.9,4.1-1.7,6.2-2.5c2.4-0.9,4.7-1.7,7.2-2.4c3-0.9,6-1.7,9.1-2.4c4.1-0.9,8.3-1.5,12.5-1.9
		c-2.4,7.4-5,14.8-7.8,22.2c0.1,1.4,0.2,2.9,0.2,4.3c5.7-1.1,11.6-1.7,17.6-1.7c6,0,11.9,0.6,17.6,1.7c0-1.4,0.1-2.9,0.2-4.3
		c-2.8-7.3-5.4-14.7-7.8-22.2c4.2,0.4,8.4,1.1,12.5,1.9c3.1,0.7,6.1,1.5,9.1,2.4c2.4,0.7,4.8,1.6,7.2,2.4c2.1,0.8,4.2,1.6,6.2,2.5
		c14.5,6.5,27.7,16,38.6,28.5c27.2-23.5,44.4-58.2,44.4-96.9C256,57.3,198.7,0,128,0S0,57.3,0,128c0,38.7,17.2,73.4,44.4,96.9
		C55.3,212.5,68.5,202.9,83,196.4"/>
	<path fill="#525353" d="M173,196.4l7.9,27.3l2.3,0.1c1.5,0,2.5,0.4,2.5,1.8c0,2.4,0.1,5.2,0.4,7.6c2,1.7,4.4,3.6,6.2,5.4
		c6.9-4,13.3-8.6,19.3-13.8C200.7,212.5,187.5,202.9,173,196.4"/>
	<path fill="#525353" d="M157.5,196.1l9.3-2.3c-2.4-0.9-4.7-1.7-7.2-2.4c-3-0.9-6-1.7-9.1-2.4c-4.1-0.9-8.3-1.5-12.5-1.9
		c2.4,7.4,5,14.8,7.8,22.2c-0.1,1.4-0.2,2.9-0.2,4.3c6.6,1.3,13.1,3.6,19.1,6.2L157.5,196.1"/>
	<path d="M63.7,238.7c1.5,0.9,3,1.7,4.5,2.5c0.5-2.6,1.4-6.1,1.6-8.8C67.9,234.1,65.5,236.8,63.7,238.7"/>
	<path d="M164.6,219.6c-6-2.7-12.4-4.7-19-6c-5.7-1.1-11.6-1.7-17.6-1.7c-6,0-11.9,0.6-17.6,1.7c-6.6,1.3-13.5,3.3-19.5,5.9l-0.6,4
		h75.6L164.6,219.6"/>
	<path fill="#525353" d="M69.6,233.2c0.2-2.4,0.4-4.5,0.4-6.9c0-1.5,1-2.4,2.5-2.4l2.4-0.1l8.1-27.3c-14.5,6.5-27.7,16-38.6,28.5
		c6,5.2,12.4,9.8,19.3,13.8c1.8-1.8,3.7-3.6,5.7-5.3"/>
	<path d="M187.1,238c0.5,2.6,0.6,3.1,0.7,3.1c1.5-0.8,3-1.7,4.5-2.5c-1.8-1.8-3.8-3.7-5.8-5.3L187.1,238"/>
	<path fill="#AA9678" d="M164.6,219.6l1.2,3.9h15.5l-8.2-27.1c-2-0.9-4.1-1.7-6.2-2.5l-9.3,2.3L164.6,219.6"/>
	<path fill="#C4B6A1" d="M75,229c0.1-0.1,0.2-0.1,0.2-0.2h-0.2C75,228.9,75,228.9,75,229"/>
	<path fill="#AA9678" d="M180.9,228.8h-0.2c0.1,0.1,0.2,0.1,0.2,0.2C181,228.9,181,228.9,180.9,228.8"/>
	<path fill="#AA9678" d="M180.7,228.4l-52.8,0.1L128,256c19.6,0,38.3-4.4,54.9-12.4c-1.1-4.8-1.2-9.9-1.4-14.9
		C181.4,228.7,180.7,228.4,180.7,228.4"/>
	<path fill="#C4B6A1" d="M127.9,228.6c0,0-53.1-0.1-53.2,0c-0.2,5-1.2,10.9-1.6,15.1c16.6,7.9,35.2,12.4,54.9,12.4l0-27.3
		L127.9,228.6"/>
	<path fill="#786453" d="M128,226.1L128,226.1l0,2.6h0V226.1z"/>
	<path fill="#525353" d="M164.6,205.2c-0.4-0.4-0.8-0.9-1.2-1.5C163.9,204.3,164.3,204.8,164.6,205.2"/>
	<path fill="#AA9678" d="M167.6,208.2C167.6,208.2,167.6,208.2,167.6,208.2C167.6,208.2,167.6,208.2,167.6,208.2s-1.3-1-2.9-2.9
		C166.3,207.1,167.6,208.2,167.6,208.2"/>
	<path fill="#FFFFFF" d="M206.7,92.3L206.7,92.3L206.7,92.3"/>
	<path fill="#FFFFFF" d="M211.9,129.2C211.9,129.2,211.9,129.2,211.9,129.2C211.9,129.2,211.9,129.2,211.9,129.2"/>
	<path fill="#BBBCBD" d="M211.9,129.2C211.9,129.2,211.9,129.1,211.9,129.2C211.9,129.1,211.9,129.2,211.9,129.2"/>
	<path fill="#676A6A" d="M211.7,127.2C211.7,127.2,211.7,127.2,211.7,127.2c0,0.1,0,0.1,0,0.2v0c0.1,0.5,0.1,1,0.1,1.5
		c0,0.1,0,0.2,0,0.3c0,0,0,0,0,0c0,0,0,0,0,0c0,0.1,0,0.2,0,0.3c0,0.5,0,1-0.1,1.5v0c0,0,0,0,0,0.1c0,0,0,0.1,0,0.1
		c-0.1,0.5-0.2,1-0.3,1.5c0,0,0,0,0,0v0l0,0c0,0,0,0,0,0v0l3.4-3.5l-3.4-3.5c0,0,0,0,0,0C211.5,126.1,211.6,126.6,211.7,127.2"/>
	<path d="M211.7,131.2c0-0.1,0-0.1,0-0.2c0.1-0.5,0.1-1,0.1-1.5c0-0.1,0-0.2,0-0.3c0-0.1,0-0.2,0-0.3c0-0.5,0-1-0.1-1.5
		c0-0.1,0-0.1,0-0.2c-0.1-0.5-0.2-1.1-0.3-1.5c0-0.2-0.1-0.3-0.2-0.5c-0.3-1-0.7-1.9-1.2-2.6c-0.1-0.1-0.1-0.2-0.2-0.3
		c-0.1-0.2-0.3-0.4-0.4-0.5c-0.2-0.2-0.4-0.4-0.7-0.6c-0.1-0.1-0.2-0.1-0.3-0.2c-0.2-0.1-0.4-0.2-0.6-0.3c-0.1,0-0.2-0.1-0.3-0.1
		c-0.3-0.1-0.6-0.2-0.9-0.2c-0.3,0-0.6,0.1-0.9,0.2c-0.1,0-0.2,0.1-0.3,0.1c-0.2,0.1-0.4,0.2-0.6,0.3c-0.1,0.1-0.2,0.1-0.3,0.2
		c-0.2,0.2-0.5,0.4-0.7,0.6c-0.1,0.2-0.3,0.3-0.4,0.5c-0.1,0.1-0.1,0.2-0.2,0.3c-0.5,0.7-0.9,1.6-1.2,2.6c0,0,0,0.1,0,0.1
		c-0.1,0.5-0.2,0.9-0.3,1.4c0,0.2-0.1,0.3-0.1,0.5c-0.1,0.6-0.1,1.1-0.1,1.7c0,0.1,0,0.2,0,0.2h0c0,4.9,2.3,8.8,5.2,8.8
		c0.5,0,1-0.1,1.4-0.3c0.1,0,0.1-0.1,0.2-0.1c0.2-0.1,0.4-0.2,0.5-0.4c0.1-0.1,0.2-0.2,0.3-0.3c0.2-0.2,0.4-0.5,0.6-0.7
		c0.1-0.2,0.3-0.4,0.4-0.6c0.1-0.1,0.2-0.3,0.2-0.4c0.1-0.3,0.3-0.5,0.4-0.8c0-0.1,0.1-0.2,0.1-0.3c0.2-0.4,0.3-0.8,0.4-1.3
		C211.5,132.2,211.6,131.7,211.7,131.2L211.7,131.2z M206.9,128c-1.1,0-1.9-1.5-1.9-3.3c0-1.8,0.9-3.3,1.9-3.3
		c1.1,0,1.9,1.5,1.9,3.3C208.8,126.5,208,128,206.9,128L206.9,128z"/>
	<path fill="#FFFFFF" d="M206.9,121.4c-1.1,0-1.9,1.5-1.9,3.3c0,1.8,0.9,3.3,1.9,3.3c1.1,0,1.9-1.5,1.9-3.3
		C208.8,122.8,208,121.4,206.9,121.4"/>
	<path fill="#909393" d="M202.1,125.1L202.1,125.1c0.3-1,0.7-1.9,1.2-2.6c0.1-0.1,0.1-0.2,0.2-0.3c0.1-0.2,0.3-0.4,0.4-0.5
		c0.2-0.2,0.4-0.4,0.7-0.6c0.1-0.1,0.2-0.1,0.3-0.2c0.2-0.1,0.4-0.2,0.6-0.3c0.1,0,0.2-0.1,0.3-0.1c0.3-0.1,0.6-0.2,0.9-0.2
		c0.3,0,0.6,0.1,0.9,0.2c0.1,0,0.2,0.1,0.3,0.1c0.2,0.1,0.4,0.2,0.6,0.3c0.1,0.1,0.2,0.1,0.3,0.2c0.2,0.2,0.4,0.4,0.7,0.6
		c0.1,0.2,0.3,0.3,0.4,0.5c0.1,0.1,0.1,0.2,0.2,0.3c0.5,0.7,0.9,1.6,1.2,2.6v0l-4.6-20.9L202.1,125.1L202.1,125.1"/>
	<path d="M146.3,129c0-0.4,0-0.8-0.1-1.2c0,0,0,0,0,0c0-0.4-0.1-0.8-0.2-1.2c0,0,0,0,0,0c-0.1-0.4-0.2-0.8-0.3-1.1c0,0,0,0,0,0
		c-0.1-0.4-0.3-0.7-0.4-1.1c0,0,0,0,0,0c-0.2-0.4-0.3-0.7-0.5-1c-0.6-1-1.3-2-2.2-2.8c-1.1-1-2.3-1.9-3.7-2.4c0,0,0,0,0,0
		c-0.7-0.3-1.4-0.5-2.2-0.7c0,0,0,0-0.1,0c-0.7-0.1-1.5-0.2-2.3-0.2c-0.8,0-1.5,0.1-2.3,0.2c0,0-0.1,0-0.1,0
		c-0.7,0.1-1.4,0.4-2.1,0.6c0,0,0,0-0.1,0c-0.7,0.3-1.3,0.6-2,1c0,0,0,0,0,0c-0.6,0.4-1.2,0.9-1.7,1.4l0,0l0,0
		c-0.9,0.8-1.6,1.8-2.2,2.8c0,0,0,0,0,0c-0.2,0.3-0.3,0.6-0.5,1c0,0,0,0.1-0.1,0.1c-0.1,0.3-0.3,0.6-0.4,1c0,0.1,0,0.1-0.1,0.2
		c-0.1,0.3-0.2,0.6-0.2,0.9c0,0.1,0,0.2-0.1,0.3c-0.1,0.3-0.1,0.6-0.1,0.9c0,0.1,0,0.2,0,0.3c0,0.4-0.1,0.8-0.1,1.3
		c0,0.8,0.1,1.6,0.2,2.3c0,0,0,0,0,0c0.2,0.8,0.4,1.5,0.7,2.2c0,0,0,0,0,0c0.6,1.4,1.4,2.7,2.5,3.8c0.8,0.9,1.8,1.6,2.8,2.2
		c0,0,0,0,0,0c0.3,0.2,0.7,0.3,1,0.5c0,0,0.1,0,0.1,0c0.3,0.1,0.6,0.3,1,0.4c0.1,0,0.1,0,0.2,0.1c0.3,0.1,0.6,0.2,0.9,0.2
		c0.1,0,0.2,0,0.3,0.1c0.3,0.1,0.6,0.1,0.9,0.1c0.1,0,0.2,0,0.3,0c0.4,0,0.8,0.1,1.3,0.1c1.7,0,3.3-0.3,4.7-0.9
		c0.7-0.3,1.4-0.7,2-1.1c1.3-0.9,2.4-2,3.3-3.3c0.4-0.6,0.8-1.3,1.1-2c0.6-1.4,0.9-3,0.9-4.7C146.3,129.1,146.3,129.1,146.3,129
		C146.3,129,146.3,129,146.3,129L146.3,129z M134.2,127.6c-2.5,0-4.5-2-4.5-4.5s2-4.5,4.5-4.5c2.5,0,4.5,2,4.5,4.5
		S136.8,127.6,134.2,127.6L134.2,127.6z"/>
	<path fill="#FFFFFF" d="M134.2,118.5c-2.5,0-4.5,2-4.5,4.5s2,4.5,4.5,4.5c2.5,0,4.5-2,4.5-4.5S136.8,118.5,134.2,118.5"/>
	<path fill="#BBBCBD" d="M126,120.4L126,120.4L126,120.4L126,120.4l8.4-25.5V89c0,0,0-0.1,0-0.1c-4.6-0.9-9.4-1.5-14.3-1.5
		c-1.6,0-3.2,0.1-4.8,0.2c-0.2,0-0.5,0-0.7,0c-8.3,0.6-16.5,2.8-24.1,6.3c-6.5,3-12.6,6.9-18,11.5v0c0,0,0,0,0,0
		c-1.5,1.2-2.9,2.6-4.2,3.9c-0.3,0.3-0.5,0.5-0.8,0.8c-1.3,1.3-2.5,2.6-3.7,4c-0.3,0.3-0.5,0.6-0.8,0.9c-1.2,1.4-2.4,2.9-3.5,4.4
		c-0.1,0.1-0.2,0.3-0.3,0.4c-1.1,1.4-2.1,2.9-3.1,4.4c-0.2,0.3-0.4,0.6-0.6,0.9c-0.8,1.3-1.5,2.5-2.3,3.8H91L126,120.4"/>
	<path fill="#E3DDDB" d="M157.9,117.5c0.1-1,0.1-2,0.2-3c0.1-1.3,0.1-2.7,0.1-4c0-1,0-2.1,0-3.1c0-0.3,0-0.6,0-0.9
		c0-2.7-0.1-5.4-0.3-8.1c0,0,0,0,0,0c0,0,0,0,0,0c0,0,0,0-0.1,0c0,0-0.1,0-0.1-0.1c-0.5-0.3-1.7-1-2.8-1.6c0,0,0,0-0.1,0
		c-0.3-0.2-0.5-0.3-0.8-0.4c0,0,0,0,0,0c-0.2-0.1-0.4-0.2-0.5-0.3c0,0-0.1,0-0.1-0.1c-0.2-0.1-0.3-0.2-0.4-0.2
		c-1.7-0.9-3.5-1.7-5.3-2.5c-4.3-1.8-10.1-3.4-13.4-4.2v6l8.2,25.4l0,0c0.9,0.8,1.6,1.7,2.2,2.8v0c0.2,0.3,0.4,0.7,0.5,1
		c0,0,0,0,0,0c0.2,0.4,0.3,0.7,0.4,1.1c0,0,0,0,0,0c0.1,0.4,0.2,0.7,0.3,1.1c0,0,0,0,0,0c0.1,0.4,0.2,0.8,0.2,1.2c0,0,0,0,0,0
		c0,0.4,0.1,0.8,0.1,1.2l0,0.1h10.1c0.7-3.7,1.2-7.4,1.5-11.2C157.9,117.8,157.9,117.6,157.9,117.5"/>
	<path fill="#FCB03F" d="M171.1,108.6C171.1,108.6,171.1,108.6,171.1,108.6C171.1,108.6,171.1,108.6,171.1,108.6"/>
	<path fill="#909393" d="M126,120.4L126,120.4c0.5-0.5,1.1-1,1.7-1.4c0,0,0,0,0,0c0.6-0.4,1.3-0.7,2-1c0,0,0,0,0.1,0
		c0.7-0.3,1.4-0.5,2.1-0.6c0,0,0.1,0,0.1,0c0.7-0.1,1.5-0.2,2.3-0.2c0.8,0,1.6,0.1,2.3,0.2c0,0,0,0,0.1,0c0.7,0.2,1.5,0.4,2.2,0.7
		c0,0,0,0,0,0c1.4,0.6,2.7,1.4,3.7,2.4l0,0L134.3,95L126,120.4"/>
	<path fill="#676A6A" d="M123.1,133.7c-0.3-0.7-0.5-1.4-0.7-2.2c0,0,0,0,0,0c-0.1-0.8-0.2-1.5-0.2-2.3c0-0.4,0-0.8,0.1-1.3
		c0-0.1,0-0.2,0-0.3c0-0.3,0.1-0.6,0.1-0.9c0-0.1,0-0.2,0.1-0.3c0.1-0.3,0.2-0.6,0.2-0.9c0-0.1,0-0.1,0.1-0.2c0.1-0.3,0.2-0.6,0.4-1
		c0,0,0-0.1,0.1-0.1c0.2-0.3,0.3-0.7,0.5-1c0,0,0,0,0,0c0.6-1,1.3-2,2.2-2.8L91,129h-0.1l34.6,8.4
		C124.5,136.4,123.7,135.1,123.1,133.7C123.1,133.7,123.1,133.7,123.1,133.7"/>
	<path fill="#E3DDDB" d="M201.7,127.1c0-0.2,0.1-0.3,0.1-0.5c0.1-0.5,0.2-1,0.3-1.4c0-0.1,0-0.1,0-0.2l4.6-20.9l0-11.9
		c-3.7-3.1-7.7-4.8-11.9-4.8c-5.2,0-10.1,2.9-13.8,6.5c-4,3.9-7.1,8.8-9.6,13.8c-0.1,0.2-0.2,0.4-0.3,0.7c0.8,0.7,1.5,1.3,2.3,2
		c1.7,1.6,3.4,3.2,5,4.8c0.8,0.8,1.5,1.5,2.3,2.3c0.8,0.8,1.6,1.6,2.4,2.5c1,1.1,2,2.1,3,3.2c0.4,0.5,0.8,0.9,1.3,1.4
		c1.2,1.3,2.4,2.7,3.6,4l0,0c0.2,0.2,0.3,0.4,0.4,0.4h10.3c0-0.1,0-0.2,0-0.2C201.6,128.3,201.6,127.7,201.7,127.1"/>
	<path fill="#E3DDDB" d="M171.1,108.6C171.1,108.6,171.1,108.6,171.1,108.6C171.1,108.6,171.1,108.6,171.1,108.6
		C171.1,108.6,171.1,108.6,171.1,108.6C171.1,108.6,171.1,108.6,171.1,108.6"/>
	<path fill="#525353" d="M47,142.2c0-0.1,0.1-0.2,0.1-0.2c0.7-1.7,1.4-3.4,2.1-5.1c0.2-0.5,0.4-0.9,0.7-1.4c0.6-1.3,1.3-2.6,2-3.9
		c0.3-0.5,0.5-1.1,0.8-1.6c0.2-0.3,0.3-0.6,0.5-0.9c0.7-1.3,1.5-2.6,2.3-3.8c0.2-0.3,0.4-0.6,0.6-0.9c1-1.5,2-3,3.1-4.4
		c0.1-0.1,0.2-0.3,0.3-0.4c1.1-1.5,2.3-3,3.5-4.4c0.3-0.3,0.5-0.6,0.8-0.9c1.2-1.4,2.4-2.7,3.7-4c0.3-0.3,0.5-0.5,0.8-0.8
		c1.4-1.3,2.8-2.7,4.2-3.9c0,0,0,0,0,0c5.8-19.3,24.3-31.1,45.1-31.1c8.4,0,16.7,2.4,23.9,6.8c7.3,4.5,12.3,8.9,16.2,16.5
		c0,0,0,0.1,0.1,0.1c0.1,0.2,0.2,0.4,0.3,0.6c0,0,0,0,0,0c0,0,0,0,0,0c3.2,2,6.3,4.3,9.3,6.7c1,0.8,1.9,1.7,2.9,2.6
		c0.3,0.3,0.6,0.6,0.9,0.8c0,0,0,0,0,0c0,0,0,0,0,0c0.1-0.2,0.2-0.4,0.3-0.7c2.9-18.5,12.3-28.6,21.9-28.6c7.3,0,12.5,4.3,16.5,16
		l0,0.1c0,0,0,0,0,0c1.1,1.2,2.2,2.6,3.3,4l0,0c0,0,0,0.1,0.1,0.1l0,0l0,0c0.1,0.2,0.1,0.3,0.2,0.5v0l-0.2-0.6
		c-12-35.5-45.5-61-85.1-61c-49.6,0-89.8,40.2-89.8,89.8c0,9.8,1.6,19.2,4.5,27.9c0,0,0,0,0-0.1c0.6-2.6,1.3-5.3,2-7.9
		C45.5,146.2,46.2,144.2,47,142.2"/>
	<path fill="#FFFFFF" d="M214.6,129.2l-3.1,3.5v0c0,0,0,0,0,0c-0.1,0.5-0.3,0.9-0.4,1.3c0,0.1-0.1,0.2-0.1,0.3
		c-0.1,0.3-0.3,0.6-0.4,0.8c-0.1,0.1-0.2,0.3-0.2,0.4c-0.1,0.2-0.3,0.4-0.4,0.6c-0.2,0.3-0.4,0.5-0.6,0.7c-0.1,0.1-0.2,0.2-0.3,0.3
		c-0.2,0.1-0.4,0.3-0.5,0.4c-0.1,0-0.1,0.1-0.2,0.1c-0.4,0.2-0.9,0.3-1.4,0.3c-2.8,0-5.2-4-5.2-8.8h-10.3c0,0,0,0,0,0
		c1.9,2.2,3.8,4.5,5.7,6.7c0,0,0,0.1,0.1,0.1c1.8,2.2,3.6,4.4,5.4,6.7c0.1,0.1,0.2,0.2,0.3,0.3c1.7,2.1,3.3,4.3,5,6.4
		c0.2,0.2,0.3,0.4,0.5,0.6c1.7,2.3,3.4,4.6,5.2,6.9c0,0,0,0,0,0c3-8.7,4.6-18.1,4.7-27.8L215,129L214.6,129.2"/>
	<path d="M114.5,87.7c0.2,0,0.5,0,0.7,0c1.6-0.1,3.2-0.2,4.8-0.2c4.9,0,9.6,0.5,14.3,1.5h0c3.3,0.8,9.1,2.4,13.4,4.2
		c1.8,0.8,3.6,1.6,5.3,2.5c0.1,0,0.2,0.1,0.4,0.2c0,0,0.1,0,0.1,0.1c0.2,0.1,0.3,0.2,0.5,0.3c0,0,0,0,0,0c0.2,0.1,0.5,0.3,0.8,0.4
		c0,0,0,0,0.1,0c1.1,0.6,2.3,1.3,2.8,1.6c0.1,0,0.1,0,0.1,0.1c0,0,0.1,0,0.1,0c-0.1-0.2-0.2-0.4-0.3-0.6c0,0,0-0.1-0.1-0.1
		c-3.9-7.7-9.8-14.2-17.2-18.7c-7.1-4.4-15.5-6.8-23.9-6.8c-20.8,0-38.4,14-44.2,33.3c5.4-4.6,11.5-8.6,18-11.5
		C98,90.5,106.2,88.3,114.5,87.7"/>
	<path fill="#BBBCBD" d="M213.2,99.5L213.2,99.5L213.2,99.5C213.2,99.5,213.2,99.5,213.2,99.5L213.2,99.5c-1.1-1.6-2.2-2.9-3.3-4.1
		c0,0,0,0,0,0c0,0,0,0,0,0c0,0,0,0,0,0c-0.5-0.6-1-1.1-1.6-1.6c-0.2-0.2-0.4-0.4-0.6-0.5c-0.3-0.3-0.7-0.6-1-0.9v11.9l4.6,20.9v0
		c0.1,0.2,0.1,0.3,0.2,0.5l3.2,3.5l0,0h3.3c0-0.3,0-0.6,0-0.9v0c0-9.8-1.6-19.3-4.6-28.2v0C213.3,99.9,213.3,99.7,213.2,99.5"/>
	<path d="M181,94c3.7-3.6,8.6-6.5,13.8-6.5c4.2,0,8.1,1.7,11.9,4.8c0,0,0,0,0,0v0v0c0.3,0.3,0.7,0.6,1,0.9c0.2,0.2,0.4,0.3,0.6,0.5
		c0.5,0.5,1,1,1.6,1.6c0,0,0,0,0,0c0,0,0,0,0,0l0,0l0-0.1c-4-11.7-10.4-19.2-17.7-19.2c-9.6,0-17.8,13.3-20.7,31.9l0,0
		C173.9,102.9,177,97.9,181,94"/>
	<path d="M168,207.8c0,0-1.3-1-2.9-2.9c-0.4-0.4-0.8-0.9-1.2-1.5c-0.3-0.4-0.6-0.8-0.9-1.3c-0.2-0.3-0.4-0.6-0.6-1
		c-0.6-1-1.1-2.2-1.7-3.4c-0.6-1.4-0.6-2.3-1-3.6c-0.3-0.9-0.5-1.9-0.6-2.9c-0.2-1.5-0.4-3.1-0.3-4.7c0-0.9,0.1-1.9,0.3-2.8
		c0.1-0.9,0.3-1.9,0.6-2.8c0.7-2.9,2-6,3.9-9.3c0,0,0.5-1.1,0.5-1.1c0.6-1.1,0.8-1,1.4-2c8.6-14.5,13.2-25.4,10.9-42.2
		c-0.2-1.2-0.6-3.9-0.8-5.2c-0.1,0.9-0.6,3.7-0.6,3.7c-0.1,0.4-0.3,0.8-0.4,1.1c-3.7,11-9.6,19.1-18,28.3c-1.1,1.2-2.3,2.5-3.6,3.8
		c-2.1,2.1-4.2,4.3-6.5,6.6c-0.9,0.9-1.8,1.8-2.8,2.8c-0.9,0.9-1.9,2.7-3.2,4.1c-0.8,2.2-1.7,4.7-2.5,7.4c-0.3-0.1-0.7-0.2-1-0.4
		c-16.4-6.3-27.3-14.8-27.3-14.8s8.4,11,22.6,21.3c1.4,1,2.7,1.9,4.1,2.6c-0.6,9.3,3.5,18.2,22,20.8c3.1,0.4,6.3,0.4,9.5,0.1
		c0-0.1,0.2-0.1,0.2-0.1c0-0.1,0.2-0.2,0.2-0.2"/>
	<path fill="#9F2254" d="M158.1,184c16.4,2.6,40.7,2.2,65.9-9.6c0.6-0.3,1.3,0.5,1.9,0.2c0,0-17.2,17.6-37.8,27.5
		c-0.6,0.3-1.2,0.6-1.8,0.9c-2,0.9-4,1.7-6,2.4c-4,1.4-8,2.5-12,3c-0.2,0-0.4,0.1-0.6,0.1c0-0.1-0.1-0.2-0.1-0.2c0-0.1,0-0.1,0-0.1
		s-1.3-1-2.9-2.9c-0.4-0.4-0.8-0.9-1.2-1.5c-0.3-0.4-0.6-0.8-0.9-1.3c-0.2-0.3-0.4-0.6-0.6-1c-0.6-1-1.2-2.1-1.8-3.3
		c-0.5-1.2-1-2.5-1.4-3.8c-0.3-0.9-0.5-1.9-0.6-2.9c-0.2-1.5-0.4-3.1-0.3-4.7c0-0.9,0.1-1.9,0.3-2.8L158.1,184"/>
	<path fill="#FCB03F" d="M146.4,165.3c2.3-2.3,4.4-4.5,6.5-6.6c1.2-1.3,2.4-2.5,3.6-3.8c8.4-9.1,14.6-17.7,18.3-28.7
		c0.1-0.3,0.2-0.6,0.3-1c0-0.1,0-0.1,0-0.2c0.1-0.4,0.2-0.9,0.3-1.4c0-0.4,1.1-1.1,1.2-1.4c-0.9-4.8-3.1-9.8-5.4-13.7c0,0,0,0,0,0
		c0,0,0,0,0,0c-0.3-0.3-0.6-0.6-0.9-0.8c-0.9-0.9-1.9-1.7-2.9-2.6c-2.9-2.5-6-4.7-9.3-6.7c0.2,2.7,0.3,5.4,0.3,8.1
		c0,0.3,0,0.6,0,0.9c0,1,0,2.1,0,3.1c0,1.3-0.1,2.7-0.1,4c-0.1,1-0.1,2-0.2,3c0,0.1,0,0.2,0,0.3c-0.3,3.8-0.8,7.5-1.5,11.2l-1.2,5.6
		c-2.5,10-7.5,19.1-11.6,28.5c-1.1,2.5-2.1,5-3,7.6c-0.1,0.2-0.2,0.5-0.3,0.7c1.3-1.4,2.4-2.5,3.3-3.4
		C144.5,167.1,145.5,166.2,146.4,165.3"/>
	<path fill="#525353" d="M92.2,219.2c6-2.7,11.6-4.3,18.2-5.6c0-1.4-0.1-2.9-0.2-4.3c2.8-7.3,5.4-14.7,7.8-22.2
		c-4.2,0.4-8.4,1.1-12.5,1.9c-3.1,0.7-6.1,1.5-9.1,2.4c-2.4,0.7-4.8,1.6-7.2,2.4l9.3,2.3L91,219.7L92.2,219.2"/>
	<path fill="#DF0067" d="M207.6,149.4c-1.6-2.2-3.3-4.3-5-6.4c-0.1-0.1-0.2-0.2-0.3-0.3c-1.8-2.2-3.5-4.5-5.4-6.7c0,0,0-0.1-0.1-0.1
		c-1.9-2.3-3.7-4.5-5.7-6.7c-0.1-0.1-0.2-0.3-0.4-0.4c-1.2-1.4-2.4-2.7-3.6-4c-0.4-0.5-0.8-0.9-1.3-1.4c-1-1.1-2-2.2-3-3.2
		c-0.8-0.8-1.6-1.6-2.4-2.5c-0.8-0.8-1.5-1.5-2.3-2.3c-1.6-1.6-3.3-3.2-5-4.8c-0.8-0.7-1.5-1.4-2.3-2c0,0,0,0,0,0
		c1.6,4.7,3.5,9.4,4.4,14.2c0.2,1.3,0.4,2.5,0.6,3.7c2.3,16.8-3.1,27.8-11.7,42.3c-0.6,1-1.2,2.1-1.9,3.2c-2,3.3-3.2,6.4-3.9,9.3
		c-0.2,1-0.4,1.9-0.6,2.8c16.8,2.7,42,3.2,67.9-9.5c0,0-5.1-7.4-12.7-17.7c-1.7-2.3-3.4-4.6-5.2-6.9
		C207.9,149.8,207.7,149.6,207.6,149.4"/>
	<path fill="#AA9678" d="M90.1,223.9l8.4-27.8l-9.3-2.3c-2.1,0.8-4.2,1.6-6.2,2.5l-8.3,27.5l9.3,0.1L90.1,223.9"/>
	<path fill="#FFFFFF" d="M96,211.9c0.8,0.3,1.7,0.6,2.5,0.9c9.3,3.3,19.3,5,29.7,5c11.9,0,23.2-2.3,33.5-6.5
		c0.5-0.2,1.1-0.5,1.6-0.7c0.9-0.4,1.8-0.8,2.6-1.2c0.8-0.4,1.5-0.7,2.3-1.1c-0.2,0-0.4,0.1-0.6,0.1c-3.2,0.4-6.4,0.4-9.5-0.1
		c-18.5-2.7-22.6-11.6-22-20.8c-1.3-0.8-2.7-1.6-4.1-2.6c-14.2-10.3-22.6-21.3-22.6-21.3s11,8.5,27.3,14.8c0.4,0.1,0.7,0.3,1,0.4
		c0.8-2.6,1.7-5.2,2.5-7.4c0.1-0.2,0.2-0.5,0.3-0.7c0.9-2.6,1.9-5.1,3-7.6c4.1-9.4,9.2-18.5,11.6-28.5l1.2-5.6h-10.1l0,0
		c0,0,0,0,0,0l0,0c0,0,0,0.1,0,0.1c0,1.7-0.3,3.3-0.9,4.7c-0.3,0.7-0.7,1.4-1.1,2c-0.9,1.3-2,2.4-3.3,3.3c-0.6,0.4-1.3,0.8-2,1.1
		c-1.4,0.6-3,0.9-4.7,0.9c-0.4,0-0.8,0-1.3-0.1c-0.1,0-0.2,0-0.3,0c-0.3,0-0.6-0.1-0.9-0.1c-0.1,0-0.2,0-0.3-0.1
		c-0.3-0.1-0.6-0.2-0.9-0.2c-0.1,0-0.1,0-0.2-0.1c-0.3-0.1-0.7-0.2-1-0.4c0,0-0.1,0-0.1,0c-0.3-0.2-0.7-0.3-1-0.5l0,0
		c-1-0.6-2-1.3-2.8-2.2L90.9,129H53.2c-0.2,0.3-0.3,0.6-0.5,0.9c-0.3,0.5-0.6,1.1-0.8,1.6c-0.7,1.3-1.3,2.6-2,3.9
		c-0.2,0.5-0.4,0.9-0.7,1.4c-0.8,1.7-1.5,3.4-2.1,5.1c0,0.1-0.1,0.2-0.1,0.2c-0.8,2-1.4,4-2.1,6c-0.8,2.6-1.5,5.2-2,7.9
		c5.9,18.1,17.5,33.7,32.6,44.7c0.4,0.3,0.9,0.6,1.3,0.9c2.6,1.8,5.2,3.5,7.9,5C88.4,208.6,92.1,210.4,96,211.9"/>
	<path fill="#8B7460" d="M186.6,233.4c-0.2-2.4-0.4-4.8-0.4-7.2c0-1.5-1.2-2.6-2.6-2.6H72.4c-1.5,0-2.6,1.2-2.6,2.6
		c0,2.4-0.1,4.8-0.4,7.2c-0.3,2.6-0.7,5.2-1.2,7.8c1.6,0.9,3.2,1.7,4.9,2.5c1.1-4.8,1.8-9.7,1.9-14.7c0-0.1,0-0.1,0-0.2h105.9
		c0,0.1,0,0.1,0,0.2c0.2,5,0.8,9.9,1.9,14.7c1.7-0.8,3.3-1.6,4.9-2.5C187.2,238.6,186.8,236,186.6,233.4"/>
</g>
</svg>
