<?xml version="1.0" encoding="utf-8"?>
<!-- Generator: Adobe Illustrator 21.0.0, SVG Export Plug-In . SVG Version: 6.00 Build 0)  -->
<svg version="1.1" id="Layer_1" xmlns="http://www.w3.org/2000/svg" xmlns:xlink="http://www.w3.org/1999/xlink" x="0px" y="0px"
	 viewBox="0 0 714.6 118.3" enable-background="new 0 0 714.6 118.3" xml:space="preserve">
<g id="Calque_1">
</g>
<g id="Calque_2">
	<g id="XMLID_192_">
		<g id="XMLID_323_">
			<path id="XMLID_341_" fill="#1F0047" d="M259.2,70.3c-0.1-0.4-0.1-1.1-0.1-2c0-5.8,1.9-10.4,5.8-13.7c3.9-3.3,8.2-4.9,12.9-4.9
				c6.2,0,10.5,2.3,12.9,7L259.2,70.3z M304.3,62c-0.1-6.9-2.7-12.5-7.8-16.8c-5.1-4.3-11.6-6.5-19.3-6.5c-4.9,0-9.6,1.1-14,3.3
				c-4.4,2.2-8.1,5.6-11.1,10.1c-3,4.6-4.5,9.9-4.5,16c0,8.8,2.9,15.8,8.7,21.1c5.8,5.3,12.7,8,20.7,8c9.2,0,17.2-3.5,23.9-10.5
				l-7-7.8c-4.1,5-9.4,7.5-15.8,7.5s-11.4-2.3-15.1-6.8l41.4-17.4L304.3,62z"/>
			<path id="XMLID_189_" fill="#1F0047" d="M233.9,42.2c-3.3,2.3-5.9,5.2-7.9,8.8V39.6h-12v56.8h12V72c0-6.5,1.5-11.6,4.5-15.5
				c3-3.8,7.4-5.8,13.3-5.8h0.6l-0.1-12.1C240.7,38.8,237.2,40,233.9,42.2"/>
			<path id="XMLID_188_" fill="#1F0047" d="M347.2,67.4c-1.9-1.3-3.7-2.3-5.4-3c-1.7-0.7-3.4-1.4-5.2-1.9c-1.8-0.6-3.8-1.1-6.1-1.7
				c-2.3-0.6-4.1-1.2-5.4-1.8c-1.9-0.9-2.8-2.2-2.8-4.1c0-2.1,0.9-3.6,2.7-4.6c1.8-1,4.1-1.5,6.9-1.5c5.4,0,10.4,1.5,15.1,4.6
				l4.5-8.9c-5.8-3.8-12-5.8-18.6-5.8c-6.6,0-11.9,1.6-16,4.8c-4.1,3.2-6.1,7.4-6.1,12.7c0,7.5,5.9,12.8,17.7,16
				c0.3,0.1,0.7,0.2,1.3,0.4c7.5,2.3,11.3,4.8,11.3,7.7c0,1.9-0.8,3.5-2.4,4.8c-1.6,1.2-3.7,1.9-6.4,1.9c-6.2,0-12.6-2.5-19.2-7.5
				l-5.8,9.3c3.4,2.7,7.4,4.8,11.8,6.3c4.5,1.5,8.7,2.2,12.9,2.2c6.1,0,11.1-1.6,15.1-4.9c3.9-3.2,5.9-7.6,5.9-13
				C352.9,74,351,70,347.2,67.4"/>
			<path id="XMLID_336_" fill="#1F0047" d="M188.9,59c-2.5,2.7-7.3,4-14.3,4H160V33.2h12.8c6.8,0,11.9,1.1,15.1,3.2
				c3.2,2.1,4.8,5.8,4.8,10.9C192.7,52.5,191.4,56.4,188.9,59 M197.8,28.2c-5.2-4.3-13.5-6.5-24.8-6.5h-25.6v74.7H160V74.5h13.2
				c11,0,19.1-2.1,24.4-6.3c5.3-4.2,8-10.8,8-19.9C205.6,39.3,203,32.6,197.8,28.2"/>
			<path id="XMLID_185_" fill="#1F0047" d="M380.9,86.9c-2.6,0-4.6-0.8-6-2.4c-1.4-1.6-2.1-3.8-2.1-6.5V49.2h15v-9.6h-15V21.7h-12
				v56c0,6,1.8,10.7,5.4,14.3c3.6,3.5,7.9,5.3,13,5.3c5.1,0,9.7-1.9,13.9-5.7l-4.9-8.4C385.9,85.6,383.5,86.9,380.9,86.9"/>
			<path id="XMLID_332_" fill="#1F0047" d="M435.7,81.5c-3.3,3.5-7.3,5.2-12,5.2c-4.7,0-8.8-1.7-12.3-5.1c-3.5-3.4-5.2-7.8-5.2-13.3
				s1.7-10,5.1-13.6c3.4-3.6,7.5-5.4,12.3-5.4c4.8,0,8.8,1.8,12.1,5.4c3.3,3.6,4.9,8.2,4.9,13.6C440.6,73.6,438.9,78,435.7,81.5
				 M440.4,49.4c-4.8-7.1-11-10.7-18.5-10.7c-7.5,0-14,2.6-19.4,7.9c-5.5,5.3-8.2,12.3-8.2,21.1c0,8.8,2.7,16,8,21.4
				c5.3,5.4,11.6,8.1,18.8,8.1c3.6,0,7.1-0.9,10.6-2.6c3.5-1.7,6.4-4.3,8.7-7.5v9.3h12V39.6h-12L440.4,49.4L440.4,49.4z"/>
			<path id="XMLID_329_" fill="#E2066F" d="M629.6,81.4c-3.4,3.5-7.7,5.2-12.9,5.2c-5.2,0-9.5-1.7-12.9-5.2
				c-3.4-3.5-5.1-7.9-5.1-13.4c0-5.5,1.7-9.9,5.1-13.4c3.4-3.5,7.7-5.2,12.9-5.2c5.2,0,9.5,1.7,12.9,5.2c3.4,3.5,5.1,7.9,5.1,13.4
				S633,77.9,629.6,81.4 M616.7,38.7c-8.5,0-15.7,2.8-21.4,8.5c-5.7,5.7-8.5,12.6-8.5,20.8s2.8,15.1,8.5,20.8
				c5.7,5.7,12.8,8.5,21.4,8.5s15.7-2.8,21.4-8.5c5.7-5.7,8.5-12.6,8.5-20.8s-2.8-15.1-8.5-20.8C632.4,41.5,625.3,38.7,616.7,38.7"
				/>
			<path id="XMLID_326_" fill="#E2066F" d="M694.6,81.4c-3.5,3.4-7.6,5.1-12.3,5.1s-8.7-1.7-12-5.2c-3.3-3.5-4.9-7.9-4.9-13.3
				c0-5.4,1.6-9.9,4.9-13.5c3.3-3.6,7.3-5.4,12.1-5.4c4.8,0,8.9,1.8,12.3,5.4c3.4,3.6,5.1,8.1,5.1,13.6
				C699.8,73.6,698.1,78,694.6,81.4 M703.7,46.6c-5.4-5.3-11.9-7.9-19.5-7.9c-7.6,0-13.8,3.6-18.5,10.8v-9.9h-12v77.5h12V87.8
				c5.7,6.3,12.1,9.4,19.3,9.4c7.2,0,13.4-2.7,18.8-8.2c5.4-5.5,8.1-12.6,8.1-21.4S709.1,51.9,703.7,46.6"/>
			<path id="XMLID_178_" fill="#E2066F" d="M559,38.7c-4,0-7.7,1-11.2,3c-3.5,2-6,4.7-7.7,8.2V17.2h-12v79.1h12V65.6
				c0-5.3,1.5-9.3,4.6-12c3.1-2.7,6.7-4.1,10.8-4.1c8.7,0,13,5.2,13,15.7v31.2h12V61.6c0-7.4-2-13.1-5.9-17
				C570.6,40.7,565.4,38.7,559,38.7"/>
			<path id="XMLID_177_" fill="#E2066F" d="M513.8,60.5c-3.9-3.3-9.6-5.9-17.3-7.8c-7.7-1.8-12.7-3.6-15-5.2
				c-2.3-1.6-3.5-3.9-3.5-6.9c0-3,1.2-5.3,3.5-6.8c2.4-1.5,5.4-2.2,9-2.2c3.7,0,7.4,0.6,11.2,1.9c3.8,1.3,6.8,2.9,9,4.9l6.7-9.5
				c-3.4-2.8-7.5-5.1-12.2-6.6c-4.7-1.6-9.4-2.4-14.2-2.4c-7.4,0-13.6,1.9-18.6,5.6c-5,3.7-7.5,9.1-7.5,16s2.2,12,6.6,15.4
				c2.2,1.8,4.7,3.2,7.6,4.3c2.8,1.1,7,2.3,12.5,3.6c5.5,1.3,9.3,2.8,11.6,4.4s3.4,3.8,3.4,6.7s-1.2,5.2-3.6,6.9
				c-2.4,1.7-5.6,2.6-9.7,2.6c-8.1,0-15.9-3.3-23.5-9.8l-7.9,9.5c9,8,19.4,12.1,31.1,12.1c8,0,14.4-2,19.3-6.1
				c4.9-4.1,7.4-9.3,7.4-15.9S517.7,63.8,513.8,60.5"/>
		</g>
		<path id="XMLID_176_" fill="#A0DBE8" d="M38.6,90.1c0.9-0.4,1.9-0.8,2.8-1.1c1.1-0.4,2.1-0.8,3.2-1.1c1.4-0.4,2.7-0.8,4.1-1.1
			c1.9-0.4,3.8-0.7,5.7-0.9c-1.1,3.4-2.3,6.7-3.5,10.1c0.1,0.6,0.1,1.3,0.1,1.9c2.6-0.5,5.3-0.8,8-0.8s5.4,0.3,8,0.8
			c0-0.7,0-1.3,0.1-1.9c-1.3-3.3-2.5-6.7-3.5-10.1c1.9,0.2,3.8,0.5,5.7,0.9c1.4,0.3,2.8,0.7,4.1,1.1c1.1,0.3,2.2,0.7,3.2,1.1
			c0.9,0.4,1.9,0.7,2.8,1.1C86,93,92,97.3,96.9,103c12.3-10.6,20.1-26.4,20.1-43.9c0-32.1-26-58-58-58S1,27,1,59
			C1,76.6,8.8,92.3,21.1,103C26,97.3,32,93,38.6,90.1z"/>
		<path id="XMLID_175_" fill="#525353" d="M42.4,100.6c2.7-1.2,5.6-2.1,8.6-2.7c0-0.7,0-1.3-0.1-1.9c1.3-3.3,2.5-6.7,3.5-10.1
			c-1.9,0.2-3.8,0.5-5.7,0.9c-1.4,0.3-2.8,0.7-4.1,1.1c-1.1,0.3-2.2,0.7-3.2,1.1l4.2,1L42.4,100.6z"/>
		<path id="XMLID_174_" fill="#525353" d="M32.5,106.8c0.1-1.1,0.2-2.2,0.2-3.3c0-0.7,0.5-1.2,1.2-1.2h1.1l3.7-12.3
			C32,93,26,97.3,21.1,103c2.7,2.3,5.6,4.4,8.8,6.2C30.7,108.4,31.6,107.6,32.5,106.8z"/>
		<path id="XMLID_173_" fill="#525353" d="M79.4,90.1l3.7,12.3h1.1c0.7,0,1.2,0.5,1.2,1.2c0,1.1,0.1,2.2,0.2,3.3
			c0.9,0.8,1.8,1.6,2.6,2.4c3.1-1.8,6-3.9,8.8-6.2C92,97.3,86,93,79.4,90.1z"/>
		<path id="XMLID_172_" fill="#525353" d="M72.4,89.9l4.2-1c-1.1-0.4-2.1-0.8-3.2-1.1c-1.4-0.4-2.7-0.8-4.1-1.1
			c-1.9-0.4-3.8-0.7-5.7-0.9c1.1,3.4,2.3,6.7,3.5,10.1c-0.1,0.6-0.1,1.3-0.1,1.9c3,0.6,5.9,1.5,8.6,2.7L72.4,89.9z"/>
		<path id="XMLID_171_" d="M59,102.4h8.2c-0.2-1.5-0.2-3-0.2-4.5c-2.6-0.5-5.3-0.8-8-0.8s-5.4,0.3-8,0.8c0,1.5,0,3-0.2,4.5H59z"/>
		<path id="XMLID_170_" d="M29.9,109.2c0.7,0.4,1.4,0.8,2,1.1c0.2-1.2,0.4-2.3,0.5-3.5C31.6,107.6,30.7,108.4,29.9,109.2z"/>
		<path id="XMLID_169_" d="M41.9,102.4h9c0.2-1.5,0.2-3,0.2-4.5c-3,0.6-5.9,1.5-8.6,2.7L41.9,102.4z"/>
		<path id="XMLID_168_" d="M85.6,106.8c0.1,1.2,0.3,2.4,0.5,3.5c0.7-0.4,1.4-0.7,2-1.1C87.4,108.4,86.5,107.6,85.6,106.8z"/>
		<path id="XMLID_167_" d="M76.2,102.4l-0.5-1.8c-2.7-1.2-5.6-2.1-8.6-2.7c0,1.5,0,3,0.2,4.5L76.2,102.4L76.2,102.4z"/>
		<path id="XMLID_166_" fill="#AA9678" d="M41.9,102.4l0.5-1.8l3.2-10.6l-4.2-1c-0.9,0.4-1.9,0.7-2.8,1.1l-3.7,12.3h4L41.9,102.4
			L41.9,102.4z"/>
		<path id="XMLID_165_" fill="#AA9678" d="M75.6,100.6l0.5,1.8h3h4l-3.7-12.3c-0.9-0.4-1.9-0.8-2.8-1.1l-4.2,1L75.6,100.6z"/>
		<path id="XMLID_164_" fill="#C0B098" d="M35,104.8c0,0,0.1-0.1,0.1-0.1L35,104.8C35,104.8,35,104.8,35,104.8z"/>
		<path id="XMLID_163_" fill="#C0B098" d="M59,104.8h-8.5h-9.3h-6c0,0-0.1,0.1-0.1,0.1c-0.1,2.3-0.4,4.5-0.9,6.7
			c7.5,3.6,16,5.6,24.9,5.6V104.8z"/>
		<path id="XMLID_162_" fill="#AA9678" d="M83,104.8h-0.1C83,104.8,83,104.8,83,104.8C83,104.8,83,104.8,83,104.8z"/>
		<path id="XMLID_161_" fill="#AA9678" d="M82.9,104.8h-6h-9.3H59l0,0v12.3c8.9,0,17.3-2,24.9-5.6c-0.5-2.2-0.8-4.4-0.9-6.7
			C83,104.8,83,104.8,82.9,104.8z"/>
		<rect id="XMLID_160_" x="59" y="103.6" fill="#786453" width="0" height="1.2"/>
		<path id="XMLID_159_" fill="#8B7460" d="M85.6,106.8c-0.1-1.1-0.2-2.2-0.2-3.3c0-0.7-0.5-1.2-1.2-1.2h-1.1h-4h-3h-9H59h-8.2h-9h-3
			h-4h-1.1c-0.7,0-1.2,0.5-1.2,1.2c0,1.1-0.1,2.2-0.2,3.3c-0.1,1.2-0.3,2.4-0.5,3.5c0.7,0.4,1.5,0.8,2.2,1.1
			c0.5-2.2,0.8-4.4,0.9-6.7c0,0,0-0.1,0-0.1h0.1h6h9.3H59l0,0h8.5h9.3h6H83c0,0,0,0.1,0,0.1c0.1,2.3,0.4,4.5,0.9,6.7
			c0.7-0.4,1.5-0.7,2.2-1.1C85.9,109.2,85.7,108,85.6,106.8z"/>
		<g id="XMLID_195_">
			<path id="XMLID_158_" fill="none" d="M78.6,50.2L78.6,50.2C78.6,50.2,78.6,50.2,78.6,50.2c0.7,2.1,1.6,4.2,2,6.4
				c0,0.2,0,0.3,0,0.5c0,0.2-0.1,0.4-0.1,0.6c0.1-0.3,0.1-0.6,0.2-1C80.1,54.5,79.3,52.3,78.6,50.2C78.6,50.2,78.6,50.2,78.6,50.2
				C78.6,50.2,78.6,50.2,78.6,50.2L78.6,50.2z"/>
			<path id="XMLID_157_" fill="none" d="M95.5,63.4C95.4,63.4,95.4,63.4,95.5,63.4C95.4,63.4,95.4,63.4,95.5,63.4z"/>
			<path id="XMLID_156_" fill="none" d="M95.8,63.1c0,0-0.1,0.1-0.1,0.1C95.8,63.2,95.8,63.1,95.8,63.1z"/>
			<path id="XMLID_155_" fill="none" d="M76.8,48.7c-1.3-1.1-2.7-2.2-4.2-3.1l0,0C74.1,46.5,75.5,47.6,76.8,48.7z"/>
			<path id="XMLID_154_" fill="none" d="M90.3,62.6C90.3,62.6,90.3,62.6,90.3,62.6C90.3,62.6,90.3,62.6,90.3,62.6z"/>
			<path id="XMLID_153_" fill="none" d="M92.7,65.7c0,0.1,0.1,0.1,0.1,0.1C92.8,65.8,92.8,65.7,92.7,65.7z"/>
			<path id="XMLID_152_" fill="none" d="M80.4,57.8c0,0.2-0.1,0.3-0.1,0.5C80.3,58.1,80.3,58,80.4,57.8z"/>
			<path id="XMLID_151_" fill="none" d="M74.7,79c-0.9,1.5-1.5,2.9-1.8,4.2C73.2,81.8,73.8,80.4,74.7,79c0.3-0.5,0.6-1,0.9-1.4
				C75.3,78,75,78.5,74.7,79C74.7,79,74.7,79,74.7,79z"/>
			<path id="XMLID_150_" fill="none" d="M78.6,50.2c0.1-0.1,0.1-0.2,0.2-0.3l0,0C78.7,50,78.6,50.1,78.6,50.2c0.3,0.3,0.7,0.6,1,0.9
				C79.3,50.8,78.9,50.5,78.6,50.2z"/>
			<path id="XMLID_149_" fill="none" d="M67,57.8C67,57.8,67,57.8,67,57.8C67,57.8,67,57.8,67,57.8z"/>
			<path id="XMLID_148_" fill="none" d="M66.6,56.9L66.6,56.9L66.6,56.9z"/>
			<path id="XMLID_147_" fill="none" d="M70.5,44.5c-0.1,0-0.1-0.1-0.2-0.1C70.4,44.4,70.5,44.4,70.5,44.5z"/>
			<path id="XMLID_146_" fill="none" d="M70.8,44.6c-0.1-0.1-0.2-0.1-0.2-0.1C70.7,44.5,70.7,44.6,70.8,44.6z"/>
			<path id="XMLID_145_" fill="none" d="M72.7,49.3c0,0.1,0,0.3,0,0.4C72.7,49.6,72.7,49.4,72.7,49.3z"/>
			<path id="XMLID_144_" fill="none" d="M66.8,57.3C66.9,57.3,66.9,57.3,66.8,57.3C66.9,57.3,66.9,57.3,66.8,57.3z"/>
			<path id="XMLID_143_" fill="none" d="M95.1,68.7c0.1,0.1,0.1,0.2,0.2,0.3C95.2,68.9,95.2,68.8,95.1,68.7z"/>
			<path id="XMLID_142_" fill="none" d="M72.7,51.1c0,0.6,0,1.2-0.1,1.8C72.7,52.4,72.7,51.7,72.7,51.1z"/>
			<path id="XMLID_141_" fill="none" d="M67.2,58.4C67.2,58.4,67.2,58.4,67.2,58.4C67.2,58.4,67.2,58.4,67.2,58.4z"/>
			<path id="XMLID_140_" fill="none" d="M72.5,45.6c-0.2-0.1-0.8-0.4-1.3-0.7C71.7,45.1,72.3,45.4,72.5,45.6z"/>
			<path id="XMLID_139_" fill="none" d="M71.2,44.8c-0.1-0.1-0.2-0.1-0.4-0.2C71,44.7,71.1,44.8,71.2,44.8z"/>
			<path id="XMLID_138_" fill="none" d="M72.6,45.6L72.6,45.6C72.6,45.6,72.6,45.6,72.6,45.6C72.6,45.6,72.6,45.6,72.6,45.6z"/>
			<path id="XMLID_137_" fill="none" d="M97,59.7c0,0,0-0.1,0-0.1c0,0,0,0,0,0c0,0,0,0,0,0c0,0,0-0.1,0-0.1c0,0,0,0.1,0,0.1
				C97.1,59.6,97,59.7,97,59.7z"/>
			<path id="XMLID_136_" fill="none" d="M87.5,59.4c0.1,0.1,0.1,0.1,0.2,0.2c0,0,0,0,0,0h0C87.7,59.5,87.6,59.5,87.5,59.4L87.5,59.4
				z"/>
			<path id="XMLID_135_" fill="none" d="M79.6,51.1c0.8,0.7,1.5,1.4,2.3,2.2C81.1,52.6,80.4,51.8,79.6,51.1z"/>
			<path id="XMLID_134_" fill="none" d="M94.7,55.6c0.1,0,0.3,0,0.4,0.1C95,55.6,94.9,55.6,94.7,55.6z"/>
			<path id="XMLID_133_" fill="none" d="M92.5,58.5c0,0.1,0,0.1,0,0.2C92.5,58.6,92.5,58.5,92.5,58.5z"/>
			<path id="XMLID_132_" fill="none" d="M95.3,55.7c0.1,0,0.2,0.1,0.3,0.1C95.4,55.8,95.4,55.7,95.3,55.7z"/>
			<path id="XMLID_131_" fill="none" d="M96.1,56.4c0,0,0.1,0.1,0.1,0.1C96.2,56.5,96.2,56.5,96.1,56.4z"/>
			<path id="XMLID_130_" fill="none" d="M97,58.7C97,58.7,97,58.7,97,58.7C97,58.7,97,58.7,97,58.7C97,58.7,97,58.7,97,58.7
				C97,58.7,97,58.7,97,58.7z"/>
			<path id="XMLID_129_" fill="none" d="M97,60.4C97,60.4,97,60.4,97,60.4C97,60.4,97,60.4,97,60.4C97,60.4,97,60.5,97,60.4
				C97,60.5,97,60.5,97,60.4z"/>
			<path id="XMLID_128_" fill="none" d="M93.2,56.6c0,0,0.1-0.1,0.1-0.1C93.3,56.5,93.2,56.5,93.2,56.6z"/>
			<path id="XMLID_127_" fill="none" d="M94.3,55.6c0.1,0,0.3-0.1,0.4-0.1C94.6,55.6,94.4,55.6,94.3,55.6z"/>
			<path id="XMLID_126_" fill="none" d="M84,55.5c-0.4-0.4-0.7-0.7-1.1-1.1C83.3,54.7,83.6,55.1,84,55.5z"/>
			<path id="XMLID_125_" fill="none" d="M94.7,42.9L94.7,42.9C94.7,42.9,94.7,42.9,94.7,42.9v5.4l-2.1,9.5c0,0,0,0,0,0.1
				c0,0,0,0,0-0.1l0,0l0,0l2.1-9.5L94.7,42.9L94.7,42.9L94.7,42.9L94.7,42.9z"/>
			<path id="XMLID_124_" fill="none" d="M85.9,57.5c-0.2-0.2-0.4-0.4-0.6-0.6C85.5,57.1,85.7,57.3,85.9,57.5z"/>
			<path id="XMLID_123_" fill="none" d="M96.8,57.7c0,0.1,0.1,0.1,0.1,0.2c0,0,0,0,0,0C96.8,57.9,96.8,57.8,96.8,57.7L96.8,57.7
				L96.8,57.7z"/>
			<path id="XMLID_122_" fill="none" d="M92.4,59.6L92.4,59.6c0,0,0-0.1,0-0.1C92.4,59.5,92.4,59.5,92.4,59.6z"/>
			<path id="XMLID_121_" fill="none" d="M93.9,55.8c0.1-0.1,0.2-0.1,0.3-0.1C94.1,55.7,94,55.8,93.9,55.8z"/>
			<path id="XMLID_120_" fill="none" d="M93.5,56.2c0.1-0.1,0.2-0.2,0.3-0.3C93.7,56,93.6,56.1,93.5,56.2z"/>
			<path id="XMLID_119_" fill="none" d="M96.9,61.2C96.9,61.2,96.9,61.2,96.9,61.2c-0.1,0.2-0.1,0.4-0.2,0.6
				C96.7,61.6,96.8,61.4,96.9,61.2L96.9,61.2L96.9,61.2z"/>
			<path id="XMLID_118_" fill="none" d="M26.1,57.8c0.1-0.1,0.2-0.3,0.3-0.4C26.3,57.5,26.2,57.6,26.1,57.8z"/>
			<path id="XMLID_117_" fill="none" d="M95.7,55.9c0.1,0.1,0.2,0.2,0.3,0.3C95.9,56.1,95.8,56,95.7,55.9z"/>
			<path id="XMLID_116_" fill="none" d="M27.8,55.4c0-0.1,0.1-0.1,0.1-0.2C27.8,55.2,27.8,55.3,27.8,55.4z"/>
			<path id="XMLID_115_" fill="none" d="M67.3,59.5L67.3,59.5C67.3,59.5,67.3,59.5,67.3,59.5L67.3,59.5L67.3,59.5L67.3,59.5
				C67.3,59.5,67.3,59.5,67.3,59.5z"/>
			<path id="XMLID_114_" fill="none" d="M23.6,62.4c-0.1,0.2-0.2,0.4-0.3,0.6C23.4,62.8,23.5,62.6,23.6,62.4z"/>
			<path id="XMLID_113_" fill="none" d="M22.3,65.4c0,0,0,0.1,0,0.1C22.3,65.4,22.3,65.4,22.3,65.4z"/>
			<polygon id="XMLID_112_" fill="none" points="96.2,44.3 96.2,44.3 96.2,44.3 			"/>
			<path id="XMLID_111_" fill="none" d="M33.8,48.9L33.8,48.9L33.8,48.9z"/>
			<path id="XMLID_110_" fill="none" d="M31.5,51c0.1-0.1,0.2-0.2,0.3-0.3C31.8,50.7,31.6,50.9,31.5,51z"/>
			<path id="XMLID_109_" fill="none" d="M29.5,53.2c0.1-0.1,0.2-0.3,0.4-0.4C29.7,52.9,29.6,53.1,29.5,53.2z"/>
			<path id="XMLID_108_" fill="none" d="M96.8,57.7l-2.1-9.5L96.8,57.7z"/>
			<path id="XMLID_107_" fill="none" d="M60.7,64.9c0,0-0.1,0-0.1,0C60.7,64.9,60.7,64.9,60.7,64.9z"/>
			<path id="XMLID_106_" fill="none" d="M61.3,65c0,0-0.1,0-0.1,0C61.2,65,61.2,65,61.3,65z"/>
			<path id="XMLID_105_" fill="none" d="M24.9,59.9c-0.1,0.2-0.3,0.5-0.4,0.7C24.6,60.4,24.7,60.1,24.9,59.9z"/>
			<path id="XMLID_104_" fill="none" d="M59.2,64.3C59.2,64.3,59.2,64.3,59.2,64.3C59.2,64.3,59.2,64.3,59.2,64.3z"/>
			<path id="XMLID_103_" fill="none" d="M60.2,64.8C60.2,64.8,60.2,64.8,60.2,64.8C60.2,64.8,60.2,64.8,60.2,64.8z"/>
			<path id="XMLID_102_" fill="none" d="M59.7,64.6C59.7,64.6,59.7,64.6,59.7,64.6C59.7,64.6,59.7,64.6,59.7,64.6z"/>
			<path id="XMLID_101_" fill="none" d="M56.8,61.6C56.8,61.6,56.8,61.6,56.8,61.6C56.8,61.6,56.8,61.6,56.8,61.6z"/>
			<path id="XMLID_100_" fill="none" d="M56.5,58.3c0,0,0,0.1,0,0.1C56.5,58.4,56.5,58.4,56.5,58.3z"/>
			<path id="XMLID_99_" fill="none" d="M57.1,56.9C57.1,56.9,57.1,56.9,57.1,56.9C57.1,56.9,57.1,56.9,57.1,56.9z"/>
			<path id="XMLID_98_" fill="none" d="M58.9,55C58.9,55,58.9,55,58.9,55C58.9,55,58.9,55,58.9,55z"/>
			<path id="XMLID_97_" fill="none" d="M56.7,57.8C56.7,57.8,56.7,57.9,56.7,57.8C56.7,57.9,56.7,57.8,56.7,57.8z"/>
			<path id="XMLID_96_" fill="none" d="M56.9,57.3C56.9,57.3,56.9,57.4,56.9,57.3C56.9,57.4,56.9,57.3,56.9,57.3z"/>
			<path id="XMLID_95_" fill="none" d="M62.9,54.2C62.9,54.2,62.9,54.2,62.9,54.2C62.9,54.2,62.9,54.2,62.9,54.2z"/>
			<path id="XMLID_94_" fill="none" d="M63.9,54.5C63.9,54.5,63.9,54.5,63.9,54.5C63.9,54.5,63.9,54.5,63.9,54.5z"/>
			<path id="XMLID_93_" fill="none" d="M59.8,54.5C59.8,54.5,59.8,54.5,59.8,54.5C59.8,54.5,59.8,54.5,59.8,54.5z"/>
			<path id="XMLID_92_" fill="none" d="M60.8,54.2C60.8,54.2,60.8,54.2,60.8,54.2C60.8,54.2,60.8,54.2,60.8,54.2z"/>
			<path id="XMLID_91_" fill="none" d="M67.3,58.9C67.3,58.9,67.3,58.9,67.3,58.9C67.3,58.9,67.3,58.9,67.3,58.9z"/>
			<path id="XMLID_90_" fill="none" d="M61.9,42c0-0.1,0-0.2,0-0.2C61.9,41.8,61.9,41.9,61.9,42z"/>
			<path id="XMLID_89_" fill="none" d="M61.9,41.6c0-0.1,0-0.1,0-0.1C61.9,41.5,61.9,41.5,61.9,41.6z"/>
			<path id="XMLID_88_" fill="none" d="M61.9,41.4C61.9,41.3,61.9,41.3,61.9,41.4C61.9,41.3,61.9,41.3,61.9,41.4z"/>
			<path id="XMLID_87_" fill="none" d="M61.9,42.7L61.9,42.7v-0.3c0-0.1,0-0.2,0-0.2C61.9,42.3,61.9,42.5,61.9,42.7z"/>
			<path id="XMLID_86_" fill="none" d="M96.3,62.5c-0.1,0.1-0.1,0.2-0.2,0.3C96.2,62.7,96.3,62.6,96.3,62.5z"/>
			<path id="XMLID_85_" fill="none" d="M56.4,58.9c0,0,0,0.1,0,0.1C56.4,59,56.4,58.9,56.4,58.9z"/>
			<path id="XMLID_84_" fill="none" d="M56.5,60.6C56.5,60.6,56.5,60.6,56.5,60.6C56.5,60.6,56.5,60.6,56.5,60.6z"/>
			<path id="XMLID_83_" fill="none" d="M96.6,61.9c-0.1,0.1-0.1,0.3-0.2,0.4C96.5,62.2,96.6,62,96.6,61.9z"/>
			<path id="XMLID_82_" fill="#525353" d="M75.6,94.1c-0.2-0.2-0.4-0.4-0.5-0.7C75.3,93.7,75.5,93.9,75.6,94.1L75.6,94.1z"/>
			<path id="XMLID_81_" fill="#AA9678" d="M77,95.4C77,95.4,77,95.4,77,95.4C77,95.4,77,95.4,77,95.4s-0.6-0.5-1.3-1.3l0,0
				C76.4,94.9,77,95.4,77,95.4z"/>
			
				<ellipse id="XMLID_80_" transform="matrix(0.9968 -7.970150e-02 7.970150e-02 0.9968 -3.1167 7.6842)" fill="#FFFFFF" cx="94.7" cy="42.9" rx="0" ry="0"/>
			<path id="XMLID_79_" fill="#FFFFFF" d="M97.1,59.6C97.1,59.6,97.1,59.6,97.1,59.6L97.1,59.6C97.1,59.6,97.1,59.6,97.1,59.6z"/>
			<path id="XMLID_78_" fill="#BBBCBD" d="M97.7,46.1L97.7,46.1L97.7,46.1C97.7,46.1,97.7,46.1,97.7,46.1L97.7,46.1
				c-0.5-0.7-1-1.3-1.5-1.9c0,0,0,0,0,0c0,0,0,0,0,0c0,0,0,0,0,0l0,0c-0.2-0.3-0.5-0.5-0.7-0.7c-0.1-0.1-0.2-0.2-0.3-0.2
				c-0.1-0.1-0.3-0.3-0.4-0.4v0v5.4l2.1,9.5l0,0c0,0.1,0.1,0.1,0.1,0.2l1.4,1.6l0,0h1.5c0-0.1,0-0.3,0-0.4v0c0-4.5-0.7-8.8-2.1-12.8
				l0,0C97.7,46.3,97.7,46.2,97.7,46.1z"/>
			<path id="XMLID_77_" fill="#BBBCBD" d="M97.1,59.6C97.1,59.6,97.1,59.6,97.1,59.6C97.1,59.6,97.1,59.6,97.1,59.6L97.1,59.6z"/>
			<path id="XMLID_76_" fill="#676A6A" d="M97,58.7C97,58.7,97,58.7,97,58.7C97,58.7,97,58.7,97,58.7C97,58.7,97,58.7,97,58.7
				c0,0.3,0.1,0.5,0.1,0.8c0,0,0,0.1,0,0.1c0,0,0,0,0,0s0,0,0,0c0,0,0,0.1,0,0.1c0,0.2,0,0.5,0,0.7c0,0,0,0,0,0c0,0,0,0,0,0
				c0,0,0,0,0,0.1c0,0.2-0.1,0.5-0.1,0.7c0,0,0,0,0,0l0,0l0,0c0,0,0,0,0,0l0,0l1.4-1.6L96.9,58c0,0,0,0,0,0
				C96.9,58.2,97,58.4,97,58.7z"/>
			<path id="XMLID_219_" d="M97,60.5C97,60.5,97,60.4,97,60.5c0-0.3,0.1-0.5,0.1-0.8c0-0.1,0-0.1,0-0.2c0,0,0-0.1,0-0.1
				c0-0.2,0-0.5,0-0.7c0,0,0,0,0-0.1c0-0.2-0.1-0.5-0.1-0.7c0-0.1,0-0.1-0.1-0.2c-0.1-0.5-0.3-0.9-0.5-1.2c0,0-0.1-0.1-0.1-0.1
				c-0.1-0.1-0.1-0.2-0.2-0.2c-0.1-0.1-0.2-0.2-0.3-0.3c0,0-0.1-0.1-0.1-0.1c-0.1-0.1-0.2-0.1-0.3-0.1c0,0-0.1,0-0.1,0
				c-0.1,0-0.3-0.1-0.4-0.1s-0.3,0-0.4,0.1c0,0-0.1,0-0.1,0c-0.1,0-0.2,0.1-0.3,0.1c0,0-0.1,0-0.1,0.1c-0.1,0.1-0.2,0.2-0.3,0.3
				c-0.1,0.1-0.1,0.2-0.2,0.2c0,0-0.1,0.1-0.1,0.1c-0.2,0.3-0.4,0.7-0.5,1.2c0,0,0,0,0,0.1c-0.1,0.2-0.1,0.4-0.1,0.7
				c0,0.1,0,0.1,0,0.2c0,0.3-0.1,0.5-0.1,0.8c0,0,0,0.1,0,0.1h0c0,2.2,1,4,2.3,4c0.2,0,0.4-0.1,0.6-0.2c0,0,0.1,0,0.1-0.1
				c0.1,0,0.2-0.1,0.2-0.2c0,0,0.1-0.1,0.1-0.1c0.1-0.1,0.2-0.2,0.3-0.3c0.1-0.1,0.1-0.2,0.2-0.3c0-0.1,0.1-0.1,0.1-0.2
				c0.1-0.1,0.1-0.2,0.2-0.4c0,0,0-0.1,0.1-0.1c0.1-0.2,0.1-0.4,0.2-0.6C96.9,61,97,60.7,97,60.5z M94.8,59c-0.5,0-0.9-0.7-0.9-1.5
				s0.4-1.5,0.9-1.5s0.9,0.7,0.9,1.5S95.3,59,94.8,59z"/>
			<ellipse id="XMLID_73_" fill="#FFFFFF" cx="94.8" cy="57.5" rx="0.9" ry="1.5"/>
			<path id="XMLID_72_" fill="#909393" d="M92.7,57.7L92.7,57.7c0.1-0.5,0.3-0.9,0.5-1.2c0,0,0.1-0.1,0.1-0.1
				c0.1-0.1,0.1-0.2,0.2-0.2c0.1-0.1,0.2-0.2,0.3-0.3c0,0,0.1-0.1,0.1-0.1c0.1-0.1,0.2-0.1,0.3-0.1c0,0,0.1,0,0.1,0
				c0.1,0,0.3-0.1,0.4-0.1s0.3,0,0.4,0.1c0,0,0.1,0,0.1,0c0.1,0,0.2,0.1,0.3,0.1c0,0,0.1,0,0.1,0.1c0.1,0.1,0.2,0.2,0.3,0.3
				c0.1,0.1,0.1,0.2,0.2,0.2c0,0,0.1,0.1,0.1,0.1c0.2,0.3,0.4,0.7,0.5,1.2v0l0,0l-2.1-9.5L92.7,57.7L92.7,57.7z"/>
			<path id="XMLID_214_" d="M67.3,59.5c0-0.2,0-0.4,0-0.6c0,0,0,0,0,0c0-0.2-0.1-0.4-0.1-0.5c0,0,0,0,0,0c0-0.2-0.1-0.3-0.1-0.5
				c0,0,0,0,0,0c-0.1-0.2-0.1-0.3-0.2-0.5c0,0,0,0,0,0c-0.1-0.2-0.2-0.3-0.2-0.5l0,0c-0.3-0.5-0.6-0.9-1-1.3
				c-0.5-0.5-1.1-0.8-1.7-1.1c0,0,0,0,0,0c-0.3-0.1-0.6-0.2-1-0.3c0,0,0,0,0,0c-0.3-0.1-0.7-0.1-1-0.1c-0.4,0-0.7,0-1,0.1
				c0,0,0,0,0,0c-0.3,0.1-0.7,0.2-1,0.3c0,0,0,0,0,0c-0.3,0.1-0.6,0.3-0.9,0.5c0,0,0,0,0,0c-0.3,0.2-0.5,0.4-0.8,0.6l0,0l0,0
				c-0.4,0.4-0.7,0.8-1,1.3c0,0,0,0,0,0c-0.1,0.1-0.2,0.3-0.2,0.4c0,0,0,0,0,0c-0.1,0.1-0.1,0.3-0.2,0.4c0,0,0,0.1,0,0.1
				c0,0.1-0.1,0.3-0.1,0.4c0,0,0,0.1,0,0.1c0,0.1,0,0.3-0.1,0.4c0,0,0,0.1,0,0.1c0,0.2,0,0.4,0,0.6c0,0.4,0,0.7,0.1,1.1c0,0,0,0,0,0
				c0.1,0.3,0.2,0.7,0.3,1c0,0,0,0,0,0c0.3,0.6,0.6,1.2,1.1,1.7c0.4,0.4,0.8,0.7,1.3,1c0,0,0,0,0,0c0.1,0.1,0.3,0.2,0.5,0.2
				c0,0,0,0,0,0c0.1,0.1,0.3,0.1,0.4,0.2c0,0,0,0,0.1,0c0.1,0,0.3,0.1,0.4,0.1c0,0,0.1,0,0.1,0c0.1,0,0.3,0,0.4,0.1c0,0,0.1,0,0.1,0
				c0.2,0,0.4,0,0.6,0c0.8,0,1.5-0.2,2.1-0.4c0.3-0.1,0.6-0.3,0.9-0.5c0.6-0.4,1.1-0.9,1.5-1.5c0.2-0.3,0.4-0.6,0.5-0.9
				C67.2,61,67.3,60.3,67.3,59.5C67.3,59.6,67.3,59.5,67.3,59.5L67.3,59.5C67.3,59.5,67.3,59.5,67.3,59.5L67.3,59.5z M61.9,58.8
				c-1.1,0-2.1-0.9-2.1-2.1c0-1.1,0.9-2.1,2.1-2.1c1.1,0,2.1,0.9,2.1,2.1C63.9,57.9,63,58.8,61.9,58.8z"/>
			<circle id="XMLID_69_" fill="#FFFFFF" cx="61.9" cy="56.8" r="2.1"/>
			<path id="XMLID_68_" fill="#BBBCBD" d="M58.1,55.6L58.1,55.6L58.1,55.6L58.1,55.6L58.1,55.6l3.8-11.5c0,0,0-0.7,0-1.4
				c0-0.2,0-0.4,0-0.6c0-0.1,0-0.1,0-0.2c0-0.1,0-0.2,0-0.2c0-0.1,0-0.1,0-0.1c0-0.1,0-0.1,0-0.1c0,0,0-0.1,0-0.1c0,0,0,0,0,0
				c-2.1-0.4-4.3-0.7-6.5-0.7c-0.7,0-1.5,0-2.2,0.1c-0.1,0-0.2,0-0.3,0c-3.8,0.3-7.5,1.3-11,2.8c-3,1.3-5.7,3.1-8.2,5.2l0,0
				c0,0,0,0,0,0c-0.7,0.6-1.3,1.2-1.9,1.8c-0.1,0.1-0.2,0.2-0.3,0.3c-0.6,0.6-1.1,1.2-1.7,1.8c-0.1,0.1-0.2,0.3-0.4,0.4
				c-0.5,0.6-1.1,1.3-1.6,2c0,0.1-0.1,0.1-0.1,0.2c-0.5,0.7-0.9,1.3-1.4,2c-0.1,0.1-0.2,0.3-0.3,0.4c-0.4,0.6-0.7,1.2-1,1.7h17.1h0
				L58.1,55.6z"/>
			<path id="XMLID_67_" fill="#E2DDDB" d="M72.6,54.3c0-0.4,0.1-0.9,0.1-1.3c0-0.6,0.1-1.2,0.1-1.8c0-0.5,0-0.9,0-1.4
				c0-0.1,0-0.3,0-0.4c0-1.2-0.1-2.4-0.1-3.7l0,0l0,0c0,0,0,0,0,0c0,0,0,0,0,0c0,0,0,0,0,0c0,0,0,0-0.1,0c-0.2-0.1-0.8-0.4-1.3-0.7
				c0,0,0,0,0,0c-0.1-0.1-0.2-0.1-0.4-0.2c0,0,0,0,0,0c-0.1-0.1-0.2-0.1-0.2-0.1c0,0,0,0,0,0c-0.1,0-0.1-0.1-0.2-0.1
				c-0.8-0.4-1.6-0.8-2.4-1.1c-2-0.8-4.6-1.5-6.1-1.9v1v0.2v0.1c0,0.7,0,1.4,0,1.4l3.7,11.5l0,0c0.4,0.4,0.7,0.8,1,1.3l0,0
				c0.1,0.2,0.2,0.3,0.2,0.5c0,0,0,0,0,0c0.1,0.2,0.1,0.3,0.2,0.5c0,0,0,0,0,0c0.1,0.2,0.1,0.3,0.1,0.5c0,0,0,0,0,0
				c0,0.2,0.1,0.4,0.1,0.5c0,0,0,0,0,0c0,0.2,0,0.4,0,0.6l0,0l0,0h4.6c0.3-1.7,0.5-3.4,0.7-5.1C72.6,54.4,72.6,54.4,72.6,54.3z"/>
			<path id="XMLID_66_" fill="#FBB040" d="M78.6,50.2C78.6,50.2,78.6,50.2,78.6,50.2C78.6,50.2,78.6,50.2,78.6,50.2L78.6,50.2z"/>
			<path id="XMLID_65_" fill="#FBB040" d="M67.4,76c1-1,2-2,2.9-3c0.6-0.6,1.1-1.1,1.6-1.7c3.8-4.1,6.6-8,8.3-13
				c0-0.1,0.1-0.3,0.1-0.5c0,0,0-0.1,0-0.1c0-0.2,0.1-0.4,0.1-0.6c0-0.2,0-0.3,0-0.5c-0.4-2.2-1.2-4.3-2-6.4c0,0,0,0,0,0
				c0,0,0,0,0,0c-0.1-0.1-0.3-0.3-0.4-0.4c-0.4-0.4-0.9-0.8-1.3-1.2c-1.3-1.1-2.7-2.2-4.2-3.1l0,0c0.1,1.2,0.1,2.4,0.1,3.7
				c0,0.1,0,0.3,0,0.4c0,0.5,0,0.9,0,1.4c0,0.6,0,1.2-0.1,1.8c0,0.5-0.1,0.9-0.1,1.3c0,0,0,0.1,0,0.1c-0.1,1.7-0.4,3.4-0.7,5.1
				l-0.5,2.5c-1.1,4.5-3.4,8.7-5.3,12.9c-0.5,1.1-1,2.3-1.4,3.4c0,0.1-0.1,0.2-0.1,0.3c0.6-0.6,1.1-1.1,1.5-1.5
				C66.5,76.8,67,76.4,67.4,76z"/>
			<path id="XMLID_64_" fill="#909393" d="M58.1,55.6L58.1,55.6c0.2-0.2,0.5-0.4,0.8-0.6c0,0,0,0,0,0c0.3-0.2,0.6-0.3,0.9-0.5
				c0,0,0,0,0,0c0.3-0.1,0.6-0.2,1-0.3c0,0,0,0,0,0c0.3-0.1,0.7-0.1,1-0.1c0.4,0,0.7,0,1,0.1c0,0,0,0,0,0c0.3,0.1,0.7,0.2,1,0.3
				c0,0,0,0,0,0c0.6,0.3,1.2,0.6,1.7,1.1l0,0l-3.7-11.5L58.1,55.6z"/>
			<path id="XMLID_63_" fill="#676A6A" d="M56.8,61.6c-0.1-0.3-0.2-0.6-0.3-1c0,0,0,0,0,0c-0.1-0.3-0.1-0.7-0.1-1.1
				c0-0.2,0-0.4,0-0.6c0,0,0-0.1,0-0.1c0-0.1,0-0.3,0.1-0.4c0,0,0-0.1,0-0.1c0-0.1,0.1-0.3,0.1-0.4c0,0,0-0.1,0-0.1
				c0-0.1,0.1-0.3,0.2-0.4c0,0,0,0,0,0c0.1-0.2,0.1-0.3,0.2-0.4c0,0,0,0,0,0c0.3-0.5,0.6-0.9,1-1.3l0,0l-15.8,3.9h0l15.7,3.8
				C57.4,62.9,57.1,62.3,56.8,61.6C56.8,61.6,56.8,61.6,56.8,61.6z"/>
			<path id="XMLID_62_" fill="#E2DDDB" d="M92.4,58.7c0-0.1,0-0.1,0-0.2c0-0.2,0.1-0.4,0.1-0.7c0,0,0,0,0-0.1l2.1-9.5v-5.4
				c-1.7-1.4-3.5-2.2-5.4-2.2c-2.4,0-4.6,1.3-6.3,2.9c-1.8,1.8-3.2,4-4.4,6.3c-0.1,0.1-0.1,0.2-0.2,0.3c0.3,0.3,0.7,0.6,1,0.9
				c0.8,0.7,1.5,1.4,2.3,2.2c0.3,0.3,0.7,0.7,1,1c0.4,0.4,0.7,0.7,1.1,1.1c0.5,0.5,0.9,1,1.4,1.5c0.2,0.2,0.4,0.4,0.6,0.6
				c0.5,0.6,1.1,1.2,1.6,1.8l0,0c0.1,0.1,0.2,0.2,0.2,0.2h4.7c0,0,0-0.1,0-0.1C92.4,59.2,92.4,58.9,92.4,58.7z"/>
			<path id="XMLID_61_" fill="#E2DDDB" d="M78.6,50.2C78.6,50.2,78.6,50.2,78.6,50.2L78.6,50.2C78.6,50.2,78.6,50.2,78.6,50.2
				C78.6,50.2,78.6,50.3,78.6,50.2C78.6,50.3,78.6,50.3,78.6,50.2z"/>
			<path id="XMLID_60_" fill="#525353" d="M22.3,65.5c0,0,0-0.1,0-0.1c0.3-0.8,0.6-1.6,1-2.3c0.1-0.2,0.2-0.4,0.3-0.6
				c0.3-0.6,0.6-1.2,0.9-1.8c0.1-0.2,0.2-0.5,0.4-0.7c0.1-0.1,0.2-0.3,0.2-0.4c0.3-0.6,0.7-1.2,1-1.7c0.1-0.1,0.2-0.3,0.3-0.4
				c0.4-0.7,0.9-1.4,1.4-2c0-0.1,0.1-0.1,0.1-0.2c0.5-0.7,1-1.3,1.6-2c0.1-0.1,0.2-0.3,0.4-0.4c0.5-0.6,1.1-1.2,1.7-1.8
				c0.1-0.1,0.2-0.2,0.3-0.3c0.6-0.6,1.3-1.2,1.9-1.8c0,0,0,0,0,0c2.6-8.7,10.6-15.1,20-15.1c3.8,0,7.6,1.1,10.8,3.1
				c3.3,2,6,5,7.8,8.5c0,0,0,0,0,0.1c0,0.1,0.1,0.2,0.1,0.3l0,0l0,0c0,0,0,0,0,0c0,0,0,0,0,0c1.5,0.9,2.9,1.9,4.2,3.1
				c0.4,0.4,0.9,0.8,1.3,1.2c0.1,0.1,0.3,0.3,0.4,0.4c0,0,0,0,0,0c0,0,0,0,0,0c0-0.1,0.1-0.2,0.1-0.3c1.3-8.4,5-14.4,9.4-14.4
				c3.3,0,6.2,3.4,8,8.7l0,0.1c0,0,0,0,0,0c0.5,0.6,1,1.2,1.5,1.8h0c0,0,0,0,0,0v0v0c0,0.1,0,0.2,0.1,0.2l0,0l-0.1-0.3
				C92.2,30,77,18.4,59.1,18.4c-22.5,0-40.7,18.2-40.7,40.7c0,4.4,0.7,8.7,2,12.7c0,0,0,0,0,0c0.3-1.2,0.6-2.4,0.9-3.6
				C21.6,67.3,21.9,66.4,22.3,65.5z"/>
			<path id="XMLID_59_" fill="#FFFFFF" d="M98.3,59.6l-1.4,1.6l0,0c0,0,0,0,0,0c-0.1,0.2-0.1,0.4-0.2,0.6c0,0,0,0.1-0.1,0.1
				c-0.1,0.1-0.1,0.3-0.2,0.4c0,0.1-0.1,0.1-0.1,0.2c-0.1,0.1-0.1,0.2-0.2,0.3c-0.1,0.1-0.2,0.2-0.3,0.3c0,0-0.1,0.1-0.1,0.1
				c-0.1,0.1-0.2,0.1-0.2,0.2c0,0-0.1,0-0.1,0.1c-0.2,0.1-0.4,0.2-0.6,0.2c-1.3,0-2.3-1.8-2.3-4h0h0h-4.7h0c0,0,0,0,0,0
				c0.9,1,1.7,2,2.6,3.1c0,0,0,0,0,0c0.8,1,1.6,2,2.4,3c0,0.1,0.1,0.1,0.1,0.1c0.8,1,1.5,1.9,2.3,2.9c0.1,0.1,0.1,0.2,0.2,0.3
				c0.8,1,1.6,2.1,2.3,3.1c0,0,0,0,0,0c1.3-4,2.1-8.2,2.1-12.6h0L98.3,59.6L98.3,59.6z"/>
			<path id="XMLID_58_" d="M52.9,40.8c0.1,0,0.2,0,0.3,0c0.7,0,1.5-0.1,2.2-0.1c2.2,0,4.4,0.2,6.5,0.7c0,0,0,0,0,0c0,0,0,0,0,0.1
				c0,0,0,0.1,0,0.1c0,0,0,0.1,0,0.1c0,0.1,0,0.2,0,0.2c0,0.1,0,0.1,0,0.2c0,0.1,0,0.2,0,0.2v-1c1.5,0.3,4.1,1.1,6.1,1.9
				c0.8,0.3,1.6,0.7,2.4,1.1c0,0,0.1,0.1,0.2,0.1c0,0,0,0,0,0c0.1,0,0.2,0.1,0.2,0.1c0,0,0,0,0,0c0.1,0.1,0.2,0.1,0.4,0.2
				c0,0,0,0,0,0c0.5,0.3,1.1,0.6,1.3,0.7c0,0,0,0,0.1,0c0,0,0,0,0,0l0,0c0-0.1-0.1-0.2-0.1-0.3c0,0,0,0,0-0.1
				c-1.8-3.5-4.5-6.4-7.8-8.5c-3.2-2-7-3.1-10.8-3.1c-9.4,0-17.4,6.4-20,15.1c2.5-2.1,5.2-3.9,8.2-5.2C45.4,42,49.1,41.1,52.9,40.8z
				"/>
			<line id="XMLID_57_" fill="none" x1="61.9" y1="42.4" x2="61.9" y2="42.6"/>
			<path id="XMLID_56_" d="M83.1,43.6c1.7-1.6,3.9-2.9,6.3-2.9c1.9,0,3.7,0.8,5.4,2.2c0,0,0,0,0,0v0v0c0.2,0.1,0.3,0.3,0.4,0.4
				c0.1,0.1,0.2,0.2,0.3,0.2c0.2,0.2,0.5,0.5,0.7,0.7l0,0c0,0,0,0,0,0c0,0,0,0,0,0l0,0l0-0.1c-1.8-5.3-4.7-8.7-8-8.7
				c-4.4,0-8.1,6-9.4,14.4l0,0C79.9,47.7,81.3,45.4,83.1,43.6z"/>
			<path id="XMLID_55_" fill="#FFFFFF" d="M44.5,97.1c0.4,0.1,0.8,0.3,1.1,0.4c4.2,1.5,8.7,2.3,13.4,2.3c5.4,0,10.5-1.1,15.2-2.9
				c0.2-0.1,0.5-0.2,0.7-0.3c0.4-0.2,0.8-0.3,1.2-0.5c0.4-0.2,0.7-0.3,1-0.5c-0.1,0-0.2,0-0.3,0l0,0c-1.5,0.2-2.9,0.2-4.3,0
				c-8.4-1.2-10.2-5.2-10-9.4c-0.6-0.3-1.2-0.7-1.8-1.2c-6.4-4.7-10.3-9.7-10.3-9.7s5,3.8,12.4,6.7c0.2,0.1,0.3,0.1,0.5,0.2
				c0.3-1.2,0.8-2.3,1.1-3.3l0,0c0-0.1,0.1-0.2,0.1-0.3c0.4-1.2,0.9-2.3,1.4-3.4c1.9-4.3,4.2-8.4,5.3-12.9l0.5-2.5h-4.6h0l0,0
				c0,0,0,0,0,0l0,0l0,0c0,0,0,0,0,0c0,0.8-0.2,1.5-0.4,2.1c-0.1,0.3-0.3,0.6-0.5,0.9c-0.4,0.6-0.9,1.1-1.5,1.5
				c-0.3,0.2-0.6,0.4-0.9,0.5c-0.7,0.3-1.4,0.4-2.1,0.4c-0.2,0-0.4,0-0.6,0c0,0-0.1,0-0.1,0c-0.1,0-0.3,0-0.4-0.1c0,0-0.1,0-0.1,0
				c-0.1,0-0.3-0.1-0.4-0.1c0,0,0,0-0.1,0c-0.1-0.1-0.3-0.1-0.4-0.2c0,0,0,0,0,0c-0.2-0.1-0.3-0.1-0.5-0.2c0,0,0,0,0,0
				c-0.5-0.3-0.9-0.6-1.3-1l-15.7-3.8H25.1c-0.1,0.1-0.2,0.3-0.2,0.4c-0.1,0.2-0.3,0.5-0.4,0.7c-0.3,0.6-0.6,1.2-0.9,1.8
				c-0.1,0.2-0.2,0.4-0.3,0.6c-0.3,0.8-0.7,1.5-1,2.3c0,0,0,0.1,0,0.1c-0.3,0.9-0.7,1.8-0.9,2.7c-0.4,1.2-0.7,2.4-0.9,3.6
				C23.1,80,28.4,87.1,35.2,92c0.2,0.1,0.4,0.3,0.6,0.4c1.2,0.8,2.4,1.6,3.6,2.3C41.1,95.6,42.8,96.4,44.5,97.1z"/>
			<path id="XMLID_54_" fill="#9F2255" d="M72.6,84.5c-0.1,0.4-0.1,0.9-0.1,1.3c0,0.8,0,1.5,0.1,2.1c0.1,0.5,0.2,0.9,0.3,1.3
				c0.2,0.6,0.4,1.2,0.6,1.7c0.2,0.5,0.5,1,0.8,1.5c0.1,0.1,0.2,0.3,0.3,0.4c0.1,0.2,0.3,0.4,0.4,0.6c0.2,0.2,0.4,0.5,0.5,0.7
				c0.7,0.9,1.3,1.3,1.3,1.3s0,0,0,0s0,0.1,0,0.1l0,0c0.1,0,0.2,0,0.3,0c1.8-0.2,3.6-0.7,5.4-1.4c0.9-0.3,1.8-0.7,2.7-1.1
				c0.3-0.1,0.5-0.3,0.8-0.4c9.3-4.5,17.1-12.5,17.1-12.5C91.7,85.9,80.2,85.7,72.6,84.5z"/>
			<path id="XMLID_53_" fill="#E2066F" d="M95.1,68.7c-0.7-1-1.5-1.9-2.3-2.9c0-0.1-0.1-0.1-0.1-0.1c-0.8-1-1.6-2-2.4-3c0,0,0,0,0,0
				c-0.8-1-1.7-2-2.6-3.1c-0.1-0.1-0.1-0.1-0.2-0.2c-0.5-0.6-1.1-1.2-1.6-1.8c-0.2-0.2-0.4-0.4-0.6-0.6c-0.5-0.5-0.9-1-1.4-1.5
				c-0.4-0.4-0.7-0.7-1.1-1.1c-0.3-0.3-0.7-0.7-1-1c-0.7-0.7-1.5-1.5-2.3-2.2c-0.3-0.3-0.7-0.6-1-0.9c0,0,0,0,0,0
				c0.7,2.1,1.6,4.3,2,6.5c0.1,0.6,0.2,1.1,0.3,1.7c1,7.6-1.4,12.6-5.3,19.2C75.2,78,75,78.5,74.7,79c-0.9,1.5-1.5,2.9-1.8,4.2
				c-0.1,0.4-0.2,0.9-0.3,1.3c7.6,1.2,19.1,1.5,30.8-4.3c0,0-2.3-3.4-5.8-8c-0.8-1-1.6-2.1-2.3-3.1C95.2,68.9,95.2,68.8,95.1,68.7z"
				/>
			<path id="XMLID_52_" d="M77,95.4c0,0-0.6-0.5-1.3-1.3c-0.2-0.2-0.4-0.4-0.5-0.7c-0.1-0.2-0.3-0.4-0.4-0.6
				c-0.1-0.1-0.2-0.3-0.3-0.4c-0.3-0.4-0.6-0.9-0.8-1.5c-0.2-0.5-0.5-1.1-0.6-1.7c-0.1-0.4-0.2-0.8-0.3-1.3
				c-0.1-0.7-0.2-1.4-0.1-2.1c0-0.4,0.1-0.8,0.1-1.3c0.1-0.4,0.1-0.8,0.3-1.3c0.3-1.3,0.9-2.7,1.8-4.2c0,0,0,0,0,0
				c0.3-0.5,0.6-1,0.8-1.4c3.9-6.6,6.3-11.5,5.3-19.2c-0.1-0.5-0.2-1.1-0.3-1.7c-0.1,0.4-0.1,0.7-0.2,1c0,0,0,0.1,0,0.1
				c0,0.2-0.1,0.3-0.1,0.5c-1.7,5-4.5,8.9-8.3,13c-0.5,0.6-1.1,1.1-1.6,1.7c-0.9,1-1.9,2-2.9,3c-0.4,0.4-0.8,0.8-1.3,1.3
				c-0.4,0.4-0.9,0.9-1.5,1.5l0,0c-0.4,1-0.8,2.2-1.1,3.3C63.3,82,63.2,82,63,81.9c-7.4-2.9-12.4-6.7-12.4-6.7s3.8,5,10.3,9.7
				c0.6,0.5,1.2,0.8,1.8,1.2c-0.3,4.2,1.6,8.2,10,9.4c1.4,0.2,2.9,0.2,4.3,0C77,95.5,77,95.5,77,95.4C77,95.4,77,95.4,77,95.4z"/>
		</g>
	</g>
</g>
</svg>
