<?xml version="1.0" encoding="utf-8"?>
<!-- Generator: Adobe Illustrator 21.0.0, SVG Export Plug-In . SVG Version: 6.00 Build 0)  -->
<svg version="1.1" id="Calque_1" xmlns="http://www.w3.org/2000/svg" xmlns:xlink="http://www.w3.org/1999/xlink" x="0px" y="0px"
	 viewBox="0 0 256 292" enable-background="new 0 0 256 292" xml:space="preserve">
<g>
	<path fill="#95BF46" d="M223.8,57.3c-0.2-1.5-1.5-2.3-2.5-2.4c-1.1-0.1-23.4-1.7-23.4-1.7s-15.5-15.4-17.2-17.1
		c-1.7-1.7-5-1.2-6.3-0.8c-0.2,0.1-3.4,1-8.7,2.7c-5.2-14.9-14.3-28.6-30.4-28.6c-0.4,0-0.9,0-1.4,0c-4.6-6-10.2-8.7-15.1-8.7
		c-37.5,0-55.4,46.8-61,70.6c-14.6,4.5-24.9,7.7-26.2,8.1c-8.1,2.5-8.4,2.8-9.4,10.5C21.3,95.8,0,260.2,0,260.2l165.7,31l89.8-19.4
		C255.5,271.9,224,58.8,223.8,57.3L223.8,57.3z M156.5,40.8c-4.2,1.3-8.9,2.8-14,4.3c0-1,0-2,0-3c0-9.3-1.3-16.7-3.3-22.6
		C147.4,20.6,152.9,30,156.5,40.8L156.5,40.8z M128.9,21.4c2.3,5.8,3.8,14.1,3.8,25.2c0,0.6,0,1.1,0,1.6c-9.1,2.8-19,5.9-29,9
		C109.3,35.7,119.7,25.3,128.9,21.4L128.9,21.4z M117.7,10.8c1.6,0,3.2,0.5,4.8,1.6c-12,5.6-24.9,19.9-30.3,48.3
		c-7.9,2.5-15.7,4.9-22.9,7.1C75.7,46.2,90.8,10.8,117.7,10.8L117.7,10.8z"/>
	<path fill="#5E8E3E" d="M221.2,55c-1.1-0.1-23.4-1.7-23.4-1.7s-15.5-15.4-17.2-17.1c-0.6-0.6-1.5-1-2.4-1.1l-12.5,256.2l89.8-19.4
		c0,0-31.5-213.1-31.7-214.5C223.6,55.9,222.3,55.1,221.2,55"/>
	<path fill="#FFFFFF" d="M135.2,104.6l-11.1,32.9c0,0-9.7-5.2-21.6-5.2c-17.4,0-18.3,10.9-18.3,13.7c0,15,39.2,20.8,39.2,56
		c0,27.7-17.6,45.6-41.3,45.6c-28.4,0-43-17.7-43-17.7l7.6-25.2c0,0,14.9,12.8,27.6,12.8c8.2,0,11.6-6.5,11.6-11.2
		c0-19.6-32.2-20.5-32.2-52.7c0-27.1,19.5-53.4,58.8-53.4C127.8,100.2,135.2,104.6,135.2,104.6"/>
</g>
</svg>
