<?xml version="1.0" encoding="utf-8"?>
<!-- Generator: Adobe Illustrator 21.0.0, SVG Export Plug-In . SVG Version: 6.00 Build 0)  -->
<svg version="1.1" id="Layer_1" xmlns="http://www.w3.org/2000/svg" xmlns:xlink="http://www.w3.org/1999/xlink" x="0px" y="0px"
	 viewBox="0 0 519 159" enable-background="new 0 0 519 159" xml:space="preserve">
<g>
	<g>
		<path fill="#95BF47" d="M130.7,40c-0.1-0.6-0.6-1-1.1-1c-0.5,0-10-0.7-10-0.7s-6.6-6.6-7.4-7.3c-0.7-0.7-2.2-0.5-2.7-0.3
			c-0.1,0-1.5,0.4-3.7,1.1c-2.2-6.4-6.1-12.3-13-12.3c-0.2,0-0.4,0-0.6,0c-2-2.6-4.4-3.7-6.5-3.7c-16.1,0-23.7,20.1-26.1,30.3
			c-6.2,1.9-10.7,3.3-11.2,3.5c-3.5,1.1-3.6,1.2-4,4.5c-0.3,2.5-9.5,72.9-9.5,72.9l71,13.3l38.5-8.3
			C144.3,131.9,130.8,40.6,130.7,40z M101.9,33c-1.8,0.6-3.8,1.2-6,1.9c0-0.4,0-0.8,0-1.3c0-4-0.6-7.2-1.4-9.7
			C98,24.3,100.3,28.3,101.9,33z M90,24.6c1,2.5,1.6,6,1.6,10.8c0,0.2,0,0.5,0,0.7c-3.9,1.2-8.2,2.5-12.4,3.8
			C81.6,30.7,86.1,26.3,90,24.6z M85.2,20.1c0.7,0,1.4,0.2,2.1,0.7c-5.1,2.4-10.7,8.5-13,20.7c-3.4,1.1-6.7,2.1-9.8,3
			C67.2,35.2,73.7,20.1,85.2,20.1z"/>
		<path fill="#5E8E3E" d="M129.6,39c-0.5,0-10-0.7-10-0.7s-6.6-6.6-7.4-7.3c-0.3-0.3-0.6-0.4-1-0.5l-5.4,109.8l38.5-8.3
			c0,0-13.5-91.3-13.6-91.9C130.6,39.4,130.1,39,129.6,39z"/>
		<path fill="#FFFFFF" d="M92.8,60.3L88,74.4c0,0-4.2-2.2-9.3-2.2c-7.5,0-7.8,4.7-7.8,5.9c0,6.4,16.8,8.9,16.8,24
			c0,11.9-7.5,19.5-17.7,19.5c-12.2,0-18.4-7.6-18.4-7.6l3.3-10.8c0,0,6.4,5.5,11.8,5.5c3.5,0,5-2.8,5-4.8c0-8.4-13.8-8.8-13.8-22.6
			c0-11.6,8.3-22.9,25.2-22.9C89.5,58.4,92.8,60.3,92.8,60.3z"/>
	</g>
	<path id="s" d="M189.1,86.7c-3.8-2.1-5.8-3.8-5.8-6.2c0-3.1,2.7-5,7-5c5,0,9.4,2.1,9.4,2.1l3.5-10.7c0,0-3.2-2.5-12.7-2.5
		c-13.2,0-22.4,7.6-22.4,18.2c0,6,4.3,10.6,10,13.9c4.6,2.6,6.2,4.5,6.2,7.2c0,2.9-2.3,5.2-6.6,5.2c-6.4,0-12.4-3.3-12.4-3.3
		l-3.7,10.7c0,0,5.6,3.7,14.9,3.7c13.6,0,23.3-6.7,23.3-18.7C200,94.7,195,90.1,189.1,86.7z"/>
	<path id="h" d="M243.3,64.1c-6.7,0-11.9,3.2-16,8L227,72l5.8-30.4h-15.1L203,118.9h15.1l5-26.4c2-10,7.1-16.1,11.9-16.1
		c3.4,0,4.7,2.3,4.7,5.6c0,2.1-0.2,4.6-0.7,6.7l-5.7,30.3h15.1l5.9-31.2c0.7-3.3,1.1-7.2,1.1-9.9C255.7,69.3,251.2,64.1,243.3,64.1z
		"/>
	<path id="o" d="M289.9,64.1c-18.2,0-30.3,16.4-30.3,34.7c0,11.7,7.2,21.2,20.8,21.2c17.9,0,29.9-16,29.9-34.7
		C310.4,74.4,304,64.1,289.9,64.1z M282.4,108.4c-5.2,0-7.3-4.4-7.3-9.9c0-8.7,4.5-22.8,12.7-22.8c5.4,0,7.1,4.6,7.1,9.1
		C294.9,94.2,290.4,108.4,282.4,108.4z"/>
	<path id="p" d="M349,64.1c-10.2,0-16,9-16,9h-0.2l0.9-8.1h-13.4c-0.7,5.5-1.9,13.8-3.1,20.1l-10.5,55.4h15.1l4.2-22.4h0.3
		c0,0,3.1,2,8.9,2c17.8,0,29.4-18.2,29.4-36.6C364.6,73.2,360.1,64.1,349,64.1z M334.6,108.6c-3.9,0-6.2-2.2-6.2-2.2l2.5-14.1
		c1.8-9.4,6.7-15.7,11.9-15.7c4.6,0,6,4.3,6,8.3C348.8,94.7,343,108.6,334.6,108.6z"/>
	<path id="dot" d="M386.2,42.4c-4.8,0-8.7,3.8-8.7,8.8c0,4.5,2.8,7.6,7.1,7.6h0.2c4.7,0,8.8-3.2,8.9-8.8
		C393.8,45.6,390.8,42.4,386.2,42.4z"/>
	<polygon id="i" points="365.1,118.9 380.2,118.9 390.5,65.3 375.2,65.3 	"/>
	<path id="f" d="M429,65.2h-10.5l0.5-2.5c0.9-5.2,3.9-9.8,9-9.8c2.7,0,4.8,0.8,4.8,0.8l3-11.8c0,0-2.6-1.3-8.2-1.3
		c-5.4,0-10.7,1.5-14.8,5c-5.2,4.4-7.6,10.7-8.8,17.1l-0.4,2.5h-7l-2.2,11.4h7l-8,42.3h15.1l8-42.3h10.4L429,65.2z"/>
	<path id="y" d="M465.3,65.3c0,0-9.5,23.8-13.7,36.8h-0.2c-0.3-4.2-3.7-36.8-3.7-36.8h-15.9l9.1,49.2c0.2,1.1,0.1,1.8-0.3,2.5
		c-1.8,3.4-4.7,6.7-8.2,9.1c-2.8,2.1-6,3.4-8.5,4.3l4.2,12.8c3.1-0.7,9.4-3.2,14.8-8.2c6.9-6.5,13.3-16.4,19.8-30l18.5-39.7H465.3z"
		/>
</g>
</svg>
