<?xml version="1.0" encoding="utf-8"?>
<!-- Generator: Adobe Illustrator 21.0.0, SVG Export Plug-In . SVG Version: 6.00 Build 0)  -->
<svg version="1.1" id="Layer_1" xmlns="http://www.w3.org/2000/svg" xmlns:xlink="http://www.w3.org/1999/xlink" x="0px" y="0px"
	 viewBox="0 0 430 120" enable-background="new 0 0 430 120" xml:space="preserve">
<path d="M243.166,50.32h-15.15v1.607c4.739,0,5.501,1.016,5.501,7.025v10.834c0,6.009-0.762,7.109-5.501,7.109
	c-3.639-0.508-6.094-2.455-9.48-6.179l-3.893-4.231c5.247-0.932,8.04-4.232,8.04-7.957c0-4.654-3.978-8.209-11.426-8.209h-14.896
	v1.607c4.739,0,5.501,1.016,5.501,7.025v10.834c0,6.009-0.762,7.109-5.501,7.109v1.607h16.843v-1.607
	c-4.739,0-5.501-1.101-5.501-7.109V66.74h1.438l9.395,11.764h24.63c12.103,0,17.351-6.432,17.351-14.135
	C260.517,56.668,255.269,50.32,243.166,50.32z M207.703,64.115V52.859h3.47c3.809,0,5.502,2.623,5.502,5.67
	c0,2.963-1.693,5.586-5.502,5.586H207.703z M243.42,75.881h-0.593c-3.047,0-3.47-0.762-3.47-4.655V52.859c0,0,3.724,0,4.063,0
	c8.802,0,10.41,6.432,10.41,11.426C253.83,69.448,252.222,75.881,243.42,75.881z"/>
<path d="M26.199,62.608c0,14.808,8.604,27.606,21.085,33.669L29.438,47.383C27.363,52.036,26.199,57.185,26.199,62.608z
	 M88.864,60.722c0-4.625-1.661-7.826-3.084-10.317c-1.896-3.083-3.675-5.691-3.675-8.774c0-3.438,2.607-6.64,6.282-6.64
	c0.166,0,0.323,0.02,0.484,0.03c-6.656-6.099-15.523-9.822-25.263-9.822c-13.07,0-24.568,6.707-31.257,16.862
	c0.878,0.028,1.706,0.045,2.408,0.045c3.912,0,9.971-0.476,9.971-0.476c2.016-0.118,2.254,2.845,0.239,3.083
	c0,0-2.027,0.237-4.281,0.355l13.623,40.523l8.188-24.554l-5.828-15.97c-2.016-0.118-3.924-0.355-3.924-0.355
	c-2.017-0.119-1.78-3.201,0.237-3.083c0,0,6.177,0.476,9.853,0.476c3.912,0,9.972-0.476,9.972-0.476
	c2.017-0.118,2.254,2.845,0.238,3.083c0,0-2.029,0.237-4.281,0.355l13.52,40.215l3.732-12.468
	C87.914,67.954,88.864,63.923,88.864,60.722z M64.267,65.88L53.04,98.497c3.353,0.986,6.897,1.524,10.569,1.524
	c4.356,0,8.536-0.752,12.424-2.121c-0.1-0.16-0.192-0.33-0.269-0.516L64.267,65.88z M96.438,44.661
	c0.161,1.191,0.251,2.47,0.251,3.847c0,3.795-0.711,8.063-2.846,13.399L82.418,94.944c11.122-6.484,18.601-18.534,18.601-32.336
	C101.019,56.104,99.357,49.989,96.438,44.661z"/>
<g>
	<path d="M20,62.608c0,24.048,19.563,43.611,43.609,43.611c24.047,0,43.61-19.563,43.61-43.611C107.22,38.563,87.656,19,63.609,19
		C39.563,19,20,38.563,20,62.608z M22,62.608C22,39.666,40.666,21,63.609,21c22.944,0,41.61,18.666,41.61,41.608
		c0,22.944-18.666,41.611-41.61,41.611C40.666,104.22,22,85.553,22,62.608z"/>
</g>
<g>
	<rect x="117.612" y="85.114" width="289.744" height="2"/>
</g>
<path d="M149.22,67.248l5.84-17.267c1.693-4.993,0.932-6.432-4.485-6.432v-1.693h15.912v1.693c-5.332,0-6.601,1.27-8.718,7.448
	l-9.649,28.946h-1.1l-8.634-26.492l-8.802,26.492h-1.101l-9.394-28.946c-2.031-6.179-3.386-7.448-8.295-7.448v-1.693h18.79v1.693
	c-4.994,0-6.349,1.185-4.57,6.432l5.67,17.267l8.549-25.392h1.608L149.22,67.248z"/>
<path d="M177.995,79.605c-9.31,0-16.928-6.856-16.928-15.235c0-8.294,7.618-15.15,16.928-15.15c9.311,0,16.928,6.856,16.928,15.15
	C194.923,72.749,187.306,79.605,177.995,79.605z M177.995,51.844c-7.786,0-10.495,7.024-10.495,12.525
	c0,5.587,2.709,12.527,10.495,12.527c7.872,0,10.58-6.94,10.58-12.527C188.575,58.868,185.867,51.844,177.995,51.844z"/>
<path d="M281.421,76.812v1.692h-19.382v-1.692c5.671,0,6.686-1.439,6.686-9.903V53.367c0-8.465-1.016-9.818-6.686-9.818v-1.693
	h17.52c8.718,0,13.543,4.486,13.543,10.496c0,5.84-4.825,10.41-13.543,10.41h-4.824v4.146
	C274.734,75.373,275.75,76.812,281.421,76.812z M279.559,44.902h-4.824V59.63h4.824c4.74,0,6.94-3.301,6.94-7.278
	C286.499,48.289,284.299,44.902,279.559,44.902z"/>
<path d="M351.246,70.549l-0.423,1.523c-0.762,2.793-1.693,3.809-7.702,3.809h-1.186c-4.4,0-5.162-1.016-5.162-7.025v-3.893
	c6.602,0,7.109,0.592,7.109,4.993h1.608V57.345h-1.608c0,4.401-0.508,4.993-7.109,4.993v-9.479h4.654
	c6.01,0,6.941,1.016,7.702,3.809l0.424,1.607h1.354l-0.592-7.955h-24.884v1.607c4.739,0,5.501,1.016,5.501,7.025v10.834
	c0,5.497-0.647,6.882-4.384,7.079c-3.552-0.542-5.99-2.479-9.326-6.148l-3.894-4.231c5.248-0.932,8.041-4.232,8.041-7.957
	c0-4.654-3.978-8.209-11.426-8.209h-14.896v1.607c4.739,0,5.501,1.016,5.501,7.025v10.834c0,6.009-0.762,7.109-5.501,7.109v1.607
	h16.843v-1.607c-4.739,0-5.501-1.101-5.501-7.109V66.74h1.439l9.395,11.764h34.785l0.508-7.955H351.246z M306.39,64.115V52.859h3.47
	c3.809,0,5.502,2.623,5.502,5.67c0,2.963-1.693,5.586-5.502,5.586H306.39z"/>
<path d="M368.428,79.605c-3.386,0-6.349-1.777-7.618-2.878c-0.423,0.424-1.185,1.693-1.353,2.878h-1.608v-11.68h1.692
	c0.678,5.586,4.57,8.887,9.564,8.887c2.708,0,4.909-1.523,4.909-4.063c0-2.2-1.947-3.893-5.417-5.501l-4.824-2.285
	c-3.386-1.609-5.925-4.402-5.925-8.126c0-4.063,3.809-7.532,9.057-7.532c2.793,0,5.162,1.016,6.602,2.2
	c0.423-0.339,0.846-1.271,1.1-2.286h1.608v9.988h-1.777c-0.593-3.978-2.793-7.279-7.278-7.279c-2.37,0-4.571,1.354-4.571,3.471
	c0,2.2,1.777,3.385,5.841,5.247l4.654,2.285c4.063,1.946,5.671,5.079,5.671,7.618C378.753,75.881,374.098,79.605,368.428,79.605z"/>
<path d="M394.495,79.605c-3.386,0-6.349-1.777-7.618-2.878c-0.423,0.424-1.185,1.693-1.354,2.878h-1.608v-11.68h1.692
	c0.678,5.586,4.57,8.887,9.564,8.887c2.708,0,4.909-1.523,4.909-4.063c0-2.2-1.947-3.893-5.417-5.501l-4.824-2.285
	c-3.386-1.609-5.925-4.402-5.925-8.126c0-4.063,3.809-7.532,9.057-7.532c2.793,0,5.162,1.016,6.602,2.2
	c0.423-0.339,0.846-1.271,1.1-2.286h1.608v9.988h-1.777c-0.593-3.978-2.793-7.279-7.278-7.279c-2.37,0-4.571,1.354-4.571,3.471
	c0,2.2,1.777,3.385,5.841,5.247l4.654,2.285c4.064,1.946,5.671,5.079,5.671,7.618C404.82,75.881,400.165,79.605,394.495,79.605z"/>
</svg>
